<svg width="2114" height="2099" xmlns="http://www.w3.org/2000/svg" xmlns:xlink="http://www.w3.org/1999/xlink" xml:space="preserve" overflow="hidden"><defs><clipPath id="clip0"><rect x="1175" y="111" width="2114" height="2099"/></clipPath></defs><g clip-path="url(#clip0)" transform="translate(-1175 -111)"><path d="M997.852 0.772016C1432.01-17.3572 1908.99 285.881 2056.14 698.039 2243.25 1222.09 1957.94 1781.77 1468.01 2006.01 1022.52 2209.9 570.775 2063.01 252.872 1716.33-328.445 1082.37 164.939 35.5795 997.852 0.772016ZM344.526 370.918C166.533 560.306 49.0231 825.038 58.399 1089 81.9105 1750.03 728.277 2124.04 1326.22 1856.92 1875.59 1611.5 2120.69 921.146 1747.01 417.498 1396.9-54.4371 735.84-45.4934 344.526 370.918ZM1935.93 558.421C1905.63 512.856 1879.43 457.696 1822.36 442.443 1830.84 455.4 1839.3 468.38 1846.93 481.892 1852.42 491.561 1869.45 529.439 1874.36 534.225 1877.31 537.101 1933.34 560.5 1935.93 558.421ZM2020.48 756.632C2024.97 751.773 1981.36 649.719 1973.21 638.358 1959.03 618.537 1925.39 606.475 1904.52 594.703 1918.26 633.741 1932.91 672.537 1941.99 713.098L2020.48 756.632ZM2059.14 966.929C2055.93 946.697 2056.51 925.908 2054.02 905.604 2052.01 889.191 2046.31 845.536 2040.37 832.242 2036.02 822.5 1965.65 779.861 1962.48 783.269 1970.8 829.704 1975.65 876.525 1980.56 923.491 2003.39 934.513 2028.02 954.649 2050.54 964.68 2053.41 965.962 2055.32 967.92 2059.09 966.977ZM2049.48 1167.58 2058.66 1031.52 2050.3 1022.96 1979.42 983.897C1980.78 1030.02 1973.58 1075.82 1967.61 1121.39L2049.48 1167.58ZM2003.56 1353.71 2037.15 1222.38 1964.88 1176.09 1957.72 1174.83 1921.26 1301.4 2003.59 1353.71ZM1899.71 1348.87 1839.63 1470.58 1920.22 1527.48C1925.39 1527.45 1964.66 1447.49 1969.4 1436.74 1973.24 1428.03 1985.56 1405.58 1979.4 1398.42L1899.71 1348.85ZM1811.58 1513.24 1725.75 1623.22 1809.16 1680.12C1821.9 1668.55 1834.05 1652.91 1845.12 1638.72 1851.09 1631.06 1892.99 1574.42 1892.26 1570.33L1811.58 1513.24ZM1601.45 1746.69C1597.68 1749.93 1583.54 1756.56 1587.92 1761.05L1659.61 1812.64 1668.43 1815.1C1682.25 1805.07 1771.71 1728.98 1771.03 1719.91L1693.1 1663.06C1688.2 1663.03 1648.93 1705.67 1641.17 1712.73 1628.42 1724.36 1614.55 1735.53 1601.45 1746.72ZM1433.34 1868.52 1511.41 1918.85C1538.67 1902.65 1567.09 1888.05 1593.55 1870.53 1598.6 1867.19 1622.88 1852.64 1621.77 1848.05L1543.67 1794 1434.76 1863.57C1432.35 1863.3 1432.98 1868.11 1433.29 1868.52ZM1457.48 1950.73C1459.75 1947.73 1455.21 1945.36 1453.47 1943.89 1446.07 1937.56 1388.03 1895.33 1383.78 1895.33 1359.37 1906.47 1334.85 1917.49 1310.03 1927.77 1305.17 1929.77 1279.8 1937.51 1278.66 1938.72 1275.04 1942.46 1280.5 1943.16 1281.73 1944.23 1300.17 1960.08 1323.56 1971.59 1341.54 1988.2L1347.51 1989.67C1361.47 1986.58 1453.37 1956.17 1457.48 1950.73ZM696.308 1967.7C676.276 1963.71 658.902 1949.55 638.314 1948.36 641.165 1952.42 649.623 1955.49 654.335 1957.67 662.478 1961.44 685.313 1972.2 692.635 1972.58 697.443 1972.82 696.501 1971.98 696.308 1967.7ZM1281.06 2008.82 1211.63 1960.79C1181.38 1965.62 1152.45 1978.48 1121.6 1979.79 1132.37 1989.12 1172.24 2026.29 1183.38 2027.98 1191.55 2029.24 1203.17 2026.37 1211.83 2025.28 1233.31 2022.57 1256.38 2018.44 1277.48 2013.55 1280.48 2012.85 1284.73 2013.05 1281.08 2008.79ZM916.202 2030.5C910.378 2024.72 885.851 1998.81 880.656 1997.19 863.596 1991.87 824.789 1991.8 804.201 1989.07 797.942 1988.25 767.882 1980.92 766.432 1982.18 762.179 1985.83 769.864 1987.52 770.951 1988.46 785.014 2000.86 795.405 2003.93 812.9 2009.4 846.174 2019.79 881.768 2025.59 916.226 2030.5ZM1111.91 2037.8C1093.78 2032.09 1065.46 1996 1049.81 1992.35 1036.9 1989.33 1007.35 1995.98 992.415 1996.78 975.984 1997.67 959.214 1995.91 942.782 1996.71 955.903 2004.05 986.181 2039.51 997.659 2042.1 1022.91 2047.81 1064.38 2038.84 1091.49 2042.71L1111.91 2037.8Z" fill="#030303" fill-rule="evenodd" transform="matrix(-1 0 0 1 3289 111)"/><path d="M286.616 310C677.883-106.422 1338.86-115.366 1688.93 356.556 2062.56 860.242 1817.5 1550.59 1268.19 1796.01 670.321 2063.14 24.0318 1689.12 0.522745 1028.07-8.85167 764.107 108.644 499.368 286.616 309.976ZM930.199 99.3839C558.744 118.915 216.476 432.845 126.838 787.095 11.009 1244.85 295.628 1698.5 765.54 1766.26 1363.29 1852.43 1889.28 1254.33 1732.16 671.067 1635.95 313.916 1298.3 80.0459 930.199 99.4081Z" fill="#FEFEFE" fill-rule="evenodd" transform="matrix(-1 0 0 1 3231 172)"/><path d="M85.5609 0 165.991 57.134C166.714 61.2222 124.945 117.921 118.995 125.565 107.963 139.763 95.8223 155.414 83.1518 167L0 110.06 85.5609 0Z" fill="#FEFEFE" fill-rule="evenodd" transform="matrix(-1 0 0 1 1563 1624)"/><path d="M14.3678 83.6364C27.4682 72.4477 41.3419 61.2592 54.1041 49.6598 61.8627 42.6036 101.115-0.0241752 106.046 0L183.996 56.837C184.673 65.8991 95.2179 141.971 81.3684 152L72.5461 149.535 0.832237 97.9662C-3.5426 93.4718 10.573 86.8503 14.3678 83.6123Z" fill="#FEFEFE" fill-rule="evenodd" transform="matrix(-1 0 0 1 1702 1774)"/><path d="M59.8752 0 139.308 49.4017C145.449 56.5313 133.19 78.8835 129.336 87.5787 124.591 98.2732 85.4776 177.976 80.3235 178L0 121.3 59.8752 0.0240964Z" fill="#FEFEFE" fill-rule="evenodd" transform="matrix(-1 0 0 1 1449 1460)"/><path d="M82.4047 179 0 126.655 36.4981 0 43.6574 1.25799 116 47.5801 82.4047 179Z" fill="#FEFEFE" fill-rule="evenodd" transform="matrix(-1 0 0 1 1368 1286)"/><path d="M0.323918 74.6126C-0.0148056 74.2013-0.619309 69.4097 1.79907 69.6514L110.8 0 188.965 54.1143C190.053 58.7365 165.771 73.2817 160.717 76.6214 134.235 94.1431 105.793 108.785 78.5132 125L0.372308 74.6126Z" fill="#FEFEFE" fill-rule="evenodd" transform="matrix(-1 0 0 1 1856 1905)"/><path d="M81.823 184 0 137.728C5.96517 92.1091 13.1622 46.1999 11.8099 0L82.6445 39.1295 91.0005 47.7011 81.823 184Z" fill="#FEFEFE" fill-rule="evenodd" transform="matrix(-1 0 0 1 1321 1095)"/><path d="M95.9522 183.743C92.2081 184.709 90.3121 182.729 87.456 181.449 65.0881 171.426 40.6322 151.332 17.9518 140.295 13.056 93.393 8.25616 46.6119 0 0.193289 3.11984-3.21199 73.0322 39.391 77.3521 49.124 83.2561 62.4314 88.9202 106.048 90.912 122.423 93.3599 142.734 92.808 163.48 96.0003 183.695Z" fill="#FEFEFE" fill-rule="evenodd" transform="matrix(-1 0 0 1 1326 894)"/><path d="M180.387 55.7877C176.271 61.2643 84.1974 91.8602 70.2032 94.9999L64.2232 93.5152C46.2101 76.7936 22.7741 65.1833 4.30119 49.2404 3.06629 48.1694-2.40545 47.4636 1.22623 43.6908 2.38846 42.498 27.7856 34.6848 32.6519 32.6645 57.5169 22.32 82.0667 11.2451 106.544 0 110.805 0 168.96 42.498 176.368 48.8995 178.087 50.3842 182.639 52.7697 180.387 55.7877Z" fill="#FEFEFE" fill-rule="evenodd" transform="matrix(-1 0 0 1 2012 2006)"/><path d="M115.677 162 37.386 118.447C28.3227 77.8685 13.7152 39.0552 0 0 20.8019 11.8013 54.3552 23.8442 68.5287 43.6742 76.6519 55.04 120.16 157.164 115.677 162Z" fill="#FEFEFE" fill-rule="evenodd" transform="matrix(-1 0 0 1 1384 706)"/><path d="M158.589 47.6492C162.242 51.8718 157.988 51.6798 155.009 52.3755 134.032 57.2221 111.084 61.3247 89.7231 64.0119 81.1209 65.0917 69.5631 67.9229 61.4413 66.6991 50.3642 64.9957 10.7169 28.1192 0 18.8583 30.6846 17.5865 59.4709 4.79866 89.5308 0L158.565 47.6732Z" fill="#FEFEFE" fill-rule="evenodd" transform="matrix(-1 0 0 1 2167 2072)"/><path d="M169 45.7977 148.597 50.659C121.504 46.8272 80.0692 55.7119 54.8364 50.0604 43.3669 47.4976 13.1114 12.3901 0 5.08585 16.4194 4.2956 33.1769 6.04381 49.5967 5.15772 64.5191 4.36747 94.0502-2.21806 106.944 0.775232 122.591 4.39143 150.891 40.1458 169 45.7977Z" fill="#FEFEFE" fill-rule="evenodd" transform="matrix(-1 0 0 1 2346 2103)"/><path d="M114 115.87C111.405 117.947 55.1811 94.5455 52.1975 91.6958 47.2738 86.9386 30.1494 49.0959 24.6677 39.4119 17.0031 25.9126 8.51349 12.944 0 0 57.2911 15.2385 83.5841 70.3475 114 115.87Z" fill="#FEFEFE" fill-rule="evenodd" transform="matrix(-1 0 0 1 1467 554)"/><path d="M151.001 47.9998C116.557 43.1401 80.9534 37.4182 47.7175 27.1 30.2296 21.6894 19.8434 18.6492 5.78566 6.36785 4.7228 5.43415-2.98227 3.75837 1.26879 0.143343 2.71791-1.1017 32.7657 6.1523 39.022 6.96624 59.6011 9.67152 98.3927 9.71942 115.446 15.0102 120.639 16.6142 145.155 42.2782 150.976 47.9998Z" fill="#FEFEFE" fill-rule="evenodd" transform="matrix(-1 0 0 1 2524 2093)"/><path d="M57.7876 19.9238C58.0044 24.3568 58.9194 25.2284 54.128 24.9547 46.8563 24.5561 24.1024 13.4734 15.9639 9.58816 11.2685 7.34693 2.81722 4.15894 0 0 20.4907 1.22046 37.8269 15.8143 57.7876 19.9238Z" fill="#FEFEFE" fill-rule="evenodd" transform="matrix(-1 0 0 1 2651 2059)"/><path d="M829.053 1.11762C1197.09-18.2413 1534.7 215.589 1630.89 572.678 1787.99 1155.84 1262.08 1753.84 664.42 1667.68 194.58 1599.96-89.9958 1146.36 25.8155 688.687 115.44 334.546 457.655 20.67 829.053 1.11762ZM826.638 61.5386C536.965 78.8676 277.151 282.173 145.468 532.896-51.561 908.04 90.2919 1384.91 484.881 1554.86 992.745 1773.59 1561.03 1377.51 1597.87 842.785 1628.55 397.577 1272.63 34.8569 826.638 61.5386Z" fill="#030303" fill-rule="evenodd" transform="matrix(-1 0 0 1 3130 270)"/><path d="M769.623 1.38476C1215.8-25.3131 1571.83 337.622 1541.16 783.093 1504.3 1318.14 935.796 1714.47 427.731 1495.59 32.9853 1325.54-108.9 848.411 88.1831 473.021 219.918 222.149 479.835 18.7237 769.623 1.38476ZM805.728 165.707C787.941 169.044 734.943 228.848 718.219 245.002 629.429 330.802 540.204 416.724 453.469 504.846 441.264 517.083 440.153 534.953 451.124 548.423 481.599 577.564 508.594 610.331 538.054 640.391 547.334 649.87 583.826 689.143 592.309 692.504 601.565 696.156 615.993 696.809 623.895 689.917L810.465 506.394 817.329 508.401 989.906 683.968C1008.76 696.713 1021.01 688.925 1035.94 676.641 1069.54 649.024 1133.46 584.48 1161.64 550.914 1180.83 528.061 1180.85 520.468 1161.64 497.591L840.191 175.984C828.252 166.577 821.824 162.684 805.68 165.707ZM253.969 695.745C238.043 713.036 206.215 736.662 218.613 761.764 256.507 801.037 291.791 843.526 330.217 882.219 344.596 896.68 357.549 911.697 378.72 896.752 417.387 851.651 471.957 811.315 509.174 766.117 524.085 748.004 521.862 738.984 507.941 721.282 481.575 687.789 425.145 631.129 393.22 601.505 377.995 587.382 361.754 586.342 346.07 600.44 316.876 633.62 283.84 663.292 253.969 695.697ZM1247.79 591.59C1239.79 591.832 1228.94 597.128 1223.19 602.786 1188.03 645.759 1130.46 685.637 1097.52 728.537 1086.67 742.684 1085.58 753.759 1096.39 768.487 1111.25 788.728 1140.76 817.215 1159.15 836.271 1173.43 851.071 1208.84 890.948 1223.24 900.307 1239.75 911.044 1251.47 903.862 1264.4 893.101 1307.9 856.899 1346.73 804.906 1390.06 767.35 1401.4 754.291 1396.52 741.233 1387.38 728.827 1366.38 700.243 1328.27 665.879 1302.97 639.182 1289.8 625.276 1267.44 591.034 1247.79 591.614ZM915.979 701.138C891.497 675.552 853.748 629.823 826.899 610.114 812.012 599.183 798.986 600.151 784.558 611.25 761.744 628.807 687.116 703.338 669.764 726.118 657.681 741.982 656.714 751.994 668.628 768.487 697.508 808.485 751.908 846.186 782.431 886.765 796.376 898.88 813.873 899.63 826.971 885.846L951.964 759.418C962.331 735.429 929.561 715.333 915.979 701.138ZM907.037 899.436C873.783 931.842 839.587 963.352 807.686 997.159L800.823 999.167 613.189 807.034C596.852 795.765 583.149 803.576 569.519 814.41 522.514 851.7 479.811 911.649 432.951 951.018 412.457 976.797 447.403 1004.78 464.392 1023.64 542.621 1110.6 629.719 1200.29 712.081 1283.63 725.445 1297.15 767.158 1343.09 782.045 1346.6 796.932 1350.11 803.795 1344.88 814.912 1335.62 925.815 1217.63 1052.69 1112.75 1162.85 994.572 1186.31 969.397 1174.52 958.298 1155.64 936.509 1118.55 893.705 1071.95 858.52 1036.04 814.362 1023.33 802.778 1007.38 803.6 993.676 813.201 969.847 829.887 930.503 876.608 907.061 899.436Z" fill="#FEFEFE" fill-rule="evenodd" transform="matrix(-1 0 0 1 3073 330)"/><path d="M2214.38 398.621 2983.72 1136.33 2351.51 1795.63 1582.18 1057.92Z" fill="#FFFFFF" fill-rule="evenodd"/><path d="M480.882 97.6887C504.35 74.911 543.761 28.2939 567.592 11.645 581.31 2.06549 597.277 1.26927 610.003 12.8029 645.955 56.8627 692.599 91.9703 729.736 134.678 748.632 156.395 760.438 167.47 736.946 192.612 626.672 310.53 499.656 415.177 388.633 532.903 377.503 542.144 371.165 547.477 355.729 543.857 340.294 540.238 299.044 494.513 285.689 481.026 203.238 397.877 116.045 308.359 37.7302 221.615 20.7463 202.794-14.2374 174.877 6.25458 149.156 53.1654 109.874 95.9154 50.034 142.972 12.8512 156.617 2.06549 170.335-5.75224 186.69 5.49212L374.528 197.197 381.399 195.194C413.334 161.462 447.568 130.021 480.858 97.6887ZM627.906 114.41C617.962 104.204 602.841 84.1763 591.882 76.6724 589.753 75.2007 588.591 73.222 585.785 75.4658L399.519 259.039C386.31 271.176 366.883 269.921 353.431 259.039L170.359 72.2327 163.488 74.2355 68.2137 171.765 364.076 474.728 676.632 170.799C677.938 169.134 677.285 167.735 676.801 165.974 675.374 160.738 635.43 122.059 627.906 114.362Z" fill="#030303" fill-rule="evenodd" transform="matrix(-1 0 0 1 2732 1132)"/><path d="M362.38 1.0079C378.535-2.01219 384.968 1.85347 396.915 11.2756L718.589 332.574C737.816 355.428 737.791 363.039 718.589 385.845 690.39 419.379 626.423 483.836 592.807 511.451 577.837 523.724 565.6 531.503 546.736 518.771L374.036 343.373 367.168 341.368 180.466 524.714C172.533 531.6 158.119 530.972 148.857 527.299 140.368 523.941 103.85 484.706 94.5632 475.235 65.0825 445.205 38.0689 412.469 7.57276 383.357-3.40704 369.9-2.29447 352.046 9.9185 339.821 96.7158 251.784 186.004 165.945 274.857 80.2269 291.568 64.1128 344.628 4.34184 362.428 1.0079ZM568.526 454.579 660.329 359.511 371.013 68.3165 68.1541 364.343 163.174 459.266 349.731 275.823C360.155 268.068 379.526 268.164 388.474 278.19 438.487 328.877 489.516 378.573 539.626 429.187 543.423 433.005 562.383 458.759 568.502 454.579Z" fill="#030303" fill-rule="evenodd" transform="matrix(-1 0 0 1 2715 495)"/><path d="M158.547 0.0241911C178.141-0.556034 200.435 33.6845 213.569 47.5885 238.803 74.2847 276.787 108.67 297.755 137.228 306.865 149.633 311.733 162.715 300.43 175.749 257.217 213.327 218.51 265.292 175.104 301.491 162.21 312.252 150.521 319.434 134.06 308.697 119.695 299.339 84.3873 259.464 70.1435 244.665 51.8026 225.611 22.3753 197.125 7.55285 176.886-3.22007 162.183-2.1358 151.084 8.68571 136.938 41.5353 94.0408 98.9201 54.166 134.012 11.1958 139.748 5.53759 150.569 0.241911 158.547 0ZM128.878 99.1672C121.889 109.033 70.1194 152.849 70.1194 159.983L150.954 243.505 236.61 157.565 158.113 71.7215 128.878 99.1672Z" fill="#030303" fill-rule="evenodd" transform="matrix(-1 0 0 1 2069 922)"/><path d="M38.2088 105.135C68.0947 72.7633 101.199 43.1679 130.432 10.0478 146.161-4.02581 162.399-2.98773 177.645 11.11 209.612 40.6812 266.117 97.2411 292.518 130.675 306.457 148.322 308.683 157.35 293.752 175.431 256.485 220.548 201.82 260.813 163.125 305.834 141.927 320.729 128.956 305.762 114.557 291.326 76.0562 252.702 40.7497 210.288 2.80536 171.085-9.60884 146.028 22.2615 122.443 38.2088 105.183ZM152.623 73.0048C142.507 75.6361 83.195 146.028 68.8206 156.36L147.299 236.987 233.109 155.781C233.496 153.849 224.494 142.842 222.34 140.307 206.2 121.309 185.461 101.828 167.916 83.5539 164.117 79.619 158.091 71.5803 152.623 73.0048Z" fill="#030303" fill-rule="evenodd" transform="matrix(-1 0 0 1 2943 921)"/><path d="M255.992 98.5352C269.584 112.7 302.38 132.729 292.004 156.692L166.918 282.85C153.833 296.605 136.299 295.857 122.344 283.767 91.7979 243.275 37.3564 205.654 8.45498 165.741-3.46859 149.283-2.50114 139.293 9.5918 123.463 26.9568 100.731 101.641 26.3585 124.472 8.83927 138.911-2.2372 151.947-3.22663 166.845 7.70499 193.691 27.3721 231.493 73.0285 255.992 98.5352ZM152.842 73.6075 147.134 70.8565C137.436 77.9028 71.2402 141.079 71.2402 146.436L145.102 222.546 221.383 146.436 152.866 73.6075Z" fill="#030303" fill-rule="evenodd" transform="matrix(-1 0 0 1 2498 933)"/></g></svg>