<svg width="1426" height="1623" xmlns="http://www.w3.org/2000/svg" xmlns:xlink="http://www.w3.org/1999/xlink" xml:space="preserve" overflow="hidden"><g transform="translate(-1340 -299)"><path d="M1919.51 318.476C2235.01 232.476 2493.17 455.332 2636.62 715.436 2777.15 970.195 2825.11 1369.12 2664.28 1624.79 2547.7 1810.11 2396.4 1865.39 2188.67 1907.56 1598.6 2027.35 1280.37 1370.28 1349.54 868.413 1377.96 661.981 1494.76 454.417 1700.95 382.582 1768.73 358.97 1849.66 337.527 1919.51 318.476ZM1765.45 426.602C1706.02 441.763 1646.98 464.498 1598.7 502.908 1594.45 506.286 1587.74 511.378 1585.32 516.053L1673.67 490.834C1685.71 488.146 1694.58 496.919 1705.14 499.991L1765.42 426.609ZM1956.28 383.931C1788.42 434.494 1682.36 609.538 1640.4 770.042 1553.84 1101.18 1659.27 1511.88 1945.08 1716.25 2232.81 1922 2567.03 1799.15 2673.33 1467.66 2740.97 1256.63 2708.13 1001.81 2615.39 802.78 2504.81 565.49 2243.56 297.4 1956.28 383.931ZM1675.51 547.602C1632.86 556.827 1590.73 568.934 1548.04 577.992 1540.68 579.567 1533.43 577.758 1525.67 581.229 1520.46 583.529 1498.21 614.649 1493.78 621.535 1492.54 623.455 1485.71 633.099 1488.42 634.506L1600.95 606.113C1620.11 606.465 1630.42 627.511 1622.13 644.075L1625.34 644.337 1675.48 547.643ZM1424.18 783.348 1531.53 757.814C1534.47 757.114 1545.66 760.919 1548.8 763.14 1567.56 776.203 1560.13 801.998 1539.54 809.016 1522.18 814.912 1412.77 834.928 1410.13 841.034 1393.14 935.389 1387.38 1032.23 1398.34 1127.96 1407.36 1206.69 1427.15 1296.15 1453.93 1370.7 1464.92 1401.3 1480.19 1430.17 1492.04 1460.36 1496.15 1462.8 1571.01 1439.87 1585.14 1438.53 1610.54 1436.12 1616.06 1475.2 1599.66 1484.83 1595.47 1487.27 1580.85 1492.09 1575.25 1493.78 1556.16 1499.55 1535.21 1502.2 1515.97 1507.8 1525.83 1525.64 1536.17 1543.85 1547.61 1560.74 1550.77 1565.42 1554.63 1573.91 1560.22 1573.64 1591.08 1568.52 1624.07 1555.38 1654.6 1551.08 1676.55 1547.98 1691.96 1564.95 1684.04 1586.45 1683.05 1589.12 1676.48 1598.95 1674.51 1599.42L1587.22 1620.18C1593.66 1628.65 1627.64 1671.55 1634.93 1672.04 1668.23 1666.77 1702.04 1653.96 1735.03 1648.55 1754.82 1645.29 1769.74 1646.41 1772.82 1670.16 1773.63 1676.54 1769.49 1693.46 1762.97 1695.01L1675.68 1715.78C1675.76 1718.94 1677.83 1719.89 1679.64 1721.87 1685.43 1728.09 1722.1 1759.86 1728 1760.15 1776.15 1751.03 1823.11 1734.56 1871.82 1729.58 1656.96 1550.77 1552.89 1269.49 1554.82 993.146 1555.45 901.763 1568.96 809.578 1596.73 722.659 1603.67 700.902 1616.8 674.989 1622.03 654.312 1622.66 651.793 1624.37 650.045 1622.87 647.152L1601.34 658.703 1455.17 693.364 1441.09 727.879 1424.23 783.441ZM1878.03 1777.82 1784.73 1800.01C1790.23 1803.97 1831.71 1827 1834.45 1826.34L1963.87 1795.56 1888.4 1741.36C1879.67 1742.37 1886.38 1744.14 1887.71 1751.06 1889.13 1758.36 1884.51 1774.47 1878.04 1777.85ZM2120.75 1857.92C2076.6 1849.69 2032.86 1831.58 1993.73 1809.69 1989.14 1810.11 1991.5 1810.86 1991.51 1813.4 1991.55 1819.5 1993.19 1825.37 1990.43 1831.61 1982.72 1849.09 1936.04 1851.15 1918.67 1855.11 1925.15 1859.75 1935.91 1861.32 1943.87 1862.82 1993.87 1872.38 2055.89 1872.39 2106.12 1863.56 2109.38 1862.99 2120.22 1861.79 2120.74 1857.89Z" fill="#030303" fill-rule="evenodd"/><path d="M1956.28 383.931C2243.56 297.4 2504.81 565.49 2615.39 802.781 2708.13 1001.81 2740.97 1256.6 2673.33 1467.66 2567.06 1799.14 2232.81 1922 1945.08 1716.25 1659.27 1511.88 1553.84 1101.18 1640.4 770.042 1682.36 609.538 1788.42 434.494 1956.28 383.931ZM2026.01 454.266C1941.41 478.56 1869.93 539.057 1820.82 610.524 1599.63 932.419 1709.78 1492.66 2056.44 1685.59 2259.71 1798.76 2477.95 1726.07 2581.05 1520.46 2700.07 1283.11 2652.15 964.594 2516.56 743.534 2422.84 590.748 2222.61 397.821 2026.04 454.258Z" fill="#FCFCFC" fill-rule="evenodd"/><path d="M1675.51 547.602 1625.37 644.295 1622.16 644.034C1630.45 627.47 1620.11 606.432 1600.98 606.071L1488.44 634.464C1485.71 633.099 1492.56 623.414 1493.8 621.494 1498.24 614.608 1520.48 583.488 1525.7 581.188 1533.43 577.758 1540.71 579.526 1548.07 577.951 1590.75 568.893 1632.89 556.786 1675.53 547.561Z" fill="#FCFCFC" fill-rule="evenodd"/><path d="M1878.03 1777.82C1884.47 1774.45 1889.12 1758.32 1887.7 1751.03 1886.35 1744.14 1879.64 1742.38 1888.4 1741.32L1963.86 1795.53 1834.44 1826.31C1831.7 1826.96 1790.22 1803.93 1784.72 1799.98L1878.02 1777.78Z" fill="#FCFCFC" fill-rule="evenodd"/><path d="M2120.75 1857.92C2120.23 1861.83 2109.38 1863.03 2106.13 1863.59 2055.92 1872.39 1993.91 1872.37 1943.87 1862.86 1935.92 1861.36 1925.16 1859.78 1918.68 1855.14 1936.05 1851.19 1982.73 1849.13 1990.44 1831.64 1993.2 1825.4 1991.55 1819.54 1991.52 1813.43 1991.51 1810.89 1989.14 1810.15 1993.74 1809.72 2032.87 1831.62 2076.64 1849.72 2120.76 1857.95Z" fill="#FCFCFC" fill-rule="evenodd"/><path d="M1765.45 426.602 1705.17 499.984C1694.58 496.919 1685.7 488.113 1673.7 490.827L1585.36 516.045C1587.78 511.37 1594.51 506.27 1598.73 502.9 1647.01 464.491 1706.05 441.755 1765.48 426.594Z" fill="#FCFCFC" fill-rule="evenodd"/><path d="M1424.18 783.348 1441.03 727.787 1455.12 693.272 1601.28 658.61 1622.81 647.059C1624.31 649.953 1622.61 651.701 1621.97 654.22 1616.78 674.888 1603.62 700.809 1596.67 722.566 1568.91 809.486 1555.39 901.671 1554.76 993.053 1552.83 1269.4 1656.91 1550.67 1871.76 1729.49 1823.06 1734.46 1776.09 1750.94 1727.95 1760.06 1722.08 1759.76 1685.41 1727.98 1679.58 1721.77 1677.78 1719.84 1675.68 1718.89 1675.63 1715.68L1762.91 1694.92C1769.43 1693.37 1773.57 1676.45 1772.76 1670.07 1769.72 1646.31 1754.77 1645.24 1734.97 1648.46 1701.98 1653.87 1668.18 1666.68 1634.87 1671.95 1627.56 1671.5 1593.61 1628.59 1587.17 1620.09L1674.45 1599.33C1676.42 1598.86 1682.99 1589.03 1683.98 1586.35 1691.9 1564.86 1676.49 1547.89 1654.54 1550.99 1623.98 1555.29 1591.04 1568.46 1560.16 1573.54 1554.57 1573.81 1550.72 1565.33 1547.55 1560.64 1536.12 1543.79 1525.78 1525.54 1515.92 1507.71 1535.15 1502.11 1556.11 1499.46 1575.19 1493.68 1580.8 1492 1595.41 1487.18 1599.6 1484.73 1616 1475.11 1610.49 1436.03 1585.09 1438.43 1570.96 1439.78 1496.1 1462.71 1491.98 1460.26 1480.14 1430.08 1464.85 1401.17 1453.87 1370.6 1427.09 1296.06 1407.3 1206.6 1398.29 1127.87 1387.35 1032.13 1393.08 935.297 1410.07 840.942 1412.75 834.828 1522.12 814.819 1539.48 808.924 1560.08 801.939 1567.5 776.11 1548.74 763.047 1545.61 760.86 1534.41 757.022 1531.47 757.722L1424.12 783.256Z" fill="#FCFCFC" fill-rule="evenodd"/><path d="M2026.01 454.266C2222.61 397.821 2422.81 590.756 2516.53 743.542 2652.14 964.561 2700.06 1283.08 2581.02 1520.46 2477.93 1726.11 2259.67 1798.76 2056.4 1685.6 1709.74 1492.63 1599.6 932.427 1820.79 610.532 1869.9 539.065 1941.37 478.568 2025.98 454.274ZM2432.16 1616.29C2459.64 1598.7 2485.09 1569.78 2503.83 1543.1 2666.53 1311.33 2595.49 932.454 2432.21 719.114 2355.81 619.27 2239.33 515.216 2108.71 506.04L2157.98 530.292C2416 690.322 2554.28 1021.09 2529.99 1319.47 2521.47 1424.31 2496.97 1516.36 2439.9 1604.88 2438.25 1607.42 2438.25 1610.85 2436.99 1612.53 2435.65 1614.33 2430.59 1612.81 2432.16 1616.29ZM1975.93 546.741C1885.29 575.685 1823.64 689.673 1794.19 773.955 1700.39 1042.01 1778.81 1407.05 2001.35 1591.42 2165.81 1727.7 2345.98 1726.96 2436.66 1512.05 2527.53 1296.63 2481.79 1011.34 2362.96 814.947 2296.06 704.398 2123.87 499.502 1975.93 546.741Z" fill="#030303" fill-rule="evenodd"/><path d="M1975.93 546.741C2123.87 499.502 2296.06 704.398 2362.96 814.946 2481.78 1011.3 2527.56 1296.62 2436.66 1512.05 2345.98 1726.96 2165.84 1727.66 2001.35 1591.42 1778.81 1407.05 1700.4 1042.01 1794.19 773.955 1823.65 689.706 1885.32 575.678 1975.93 546.741Z" fill="#FEFEFE" fill-rule="evenodd"/><path d="M2432.16 1616.29C2430.63 1612.81 2435.69 1614.32 2436.99 1612.53 2438.25 1610.85 2438.25 1607.42 2439.9 1604.88 2496.98 1516.39 2521.48 1424.35 2529.99 1319.47 2554.28 1021.09 2416 690.322 2157.98 530.292L2108.71 506.041C2239.33 515.216 2355.78 619.279 2432.21 719.115 2595.5 932.488 2666.5 1311.34 2503.83 1543.1 2485.12 1569.78 2459.67 1598.69 2432.16 1616.29Z" fill="#FCFCFC" fill-rule="evenodd"/><path d="M1987.87 737.396 2003.1 731.72 1981.95 675C1981.6 674.04 1984.23 660.383 1985.27 658.258 1986.94 654.803 1990.96 650.217 1994.32 648.354 2004.33 642.756 2040.26 629.553 2051.78 626.774 2089.55 617.646 2094.71 685.248 2108.25 707.676 2173.73 711.322 2237.65 741.959 2288.02 783.088 2312.17 802.817 2320.04 808.054 2305.05 838.093 2288.42 871.509 2258.93 926.418 2238.22 956.468 2214.45 990.935 2197.11 962.202 2174.14 946.219 2054.74 863.261 1979.01 951.138 1983.96 1074.89 1987.49 1163.15 2031.38 1286.93 2107.76 1337.44 2179.87 1385.1 2256.76 1359.2 2280.52 1275 2283.95 1262.81 2285.91 1228.27 2293.79 1222.05 2305.72 1212.65 2319.6 1220.79 2331.78 1225.33 2362.88 1236.87 2397.58 1250.63 2428.05 1263.66 2434.67 1266.5 2456.66 1275.52 2459.8 1280.23 2468.73 1293.73 2462.21 1329.17 2459.03 1345.32 2446.22 1410.71 2409.38 1466.81 2353.46 1503.58 2354.22 1522.86 2366.05 1552.1 2364.37 1570.39 2363.53 1579.42 2355.35 1591.06 2347.01 1594.84 2338.68 1598.63 2283.79 1607.6 2275.94 1605.86 2248.61 1599.87 2254.62 1559.73 2248.17 1539.06L2228.29 1542.61C2232.81 1564.13 2245.74 1606.6 2216.51 1616.3 2207.72 1619.23 2165.25 1622.48 2154.69 1622.2 2121.47 1621.39 2126.95 1565.75 2120.16 1542.61 2049.05 1534.12 1980.27 1480.45 1937.11 1425.08 1837.6 1297.43 1773.91 1094.32 1806.87 933.558 1818.55 876.603 1844.29 821.968 1889.08 783.586 1883.42 754.844 1845.67 708.818 1884.15 689.325 1894.7 683.975 1923.48 673.15 1934.85 670.586 1944.41 668.438 1963.71 672.569 1967.37 682.399L1987.88 737.424ZM1931.84 721.638 1918.28 726.693 1942.59 791.887C1946.87 803.383 1912.67 828.23 1904.34 837.641 1819.71 933.213 1839.64 1109.23 1876.92 1221.25 1911.27 1324.43 1993.81 1460.25 2103.95 1493.25 2118.79 1497.69 2149.08 1498.85 2157.65 1510.97 2166.79 1523.91 2167.61 1570.64 2172.88 1574.53 2173.56 1575.05 2187.16 1574.26 2189.86 1574.25 2187.76 1550.13 2167.5 1508.65 2201.1 1498.93 2212.31 1495.68 2247.25 1489.89 2258.92 1489.28 2275.64 1488.38 2284.26 1498.04 2288.39 1513.19 2290.44 1520.67 2293.43 1553.88 2295.52 1556.9 2297.29 1559.49 2315.47 1555.54 2317.13 1552.99 2318.93 1550.23 2308.27 1503.95 2307.61 1495.26 2305.5 1467.5 2328.13 1464.28 2346.41 1449.78 2385.96 1418.4 2415.63 1359.73 2416.95 1309.69L2329.41 1273.51 2320.75 1301.8C2291.09 1383.02 2220.41 1426 2134.6 1401.65 1978.52 1357.34 1883.74 1065.54 1970.03 932.222 2028.67 841.645 2130.76 854.614 2207.31 912.042L2257.84 827.606C2258.5 824.721 2256.72 823.391 2255.01 821.581 2230.84 795.749 2167.66 766.926 2132.96 759.626 2118.41 756.587 2095.5 757.277 2083.84 753.355 2081.78 752.674 2072.86 747.988 2072.59 747.254L2047.66 680.365 2035.79 684.787C2042.15 706.065 2068.31 750.619 2039.56 764.457 2028.59 769.735 1985.74 786.481 1975.34 787.914 1970.14 788.631 1953.89 780.597 1952.4 776.614L1931.89 721.589Z" fill="#010101" fill-rule="evenodd"/><path d="M1931.84 721.638 1952.35 776.663C1953.84 780.646 1970.08 788.652 1975.29 787.964 1985.71 786.558 2028.56 769.812 2039.51 764.506 2068.26 750.668 2042.1 706.114 2035.74 684.808L2047.6 680.386 2072.53 747.275C2072.81 748.009 2081.73 752.695 2083.78 753.376 2095.46 757.259 2118.34 756.58 2132.9 759.647 2167.59 766.919 2230.79 795.77 2254.96 821.602 2256.66 823.412 2258.44 824.742 2257.78 827.627L2207.25 912.063C2130.73 854.624 2028.63 841.628 1969.97 932.243 1883.68 1065.56 1978.46 1357.36 2134.54 1401.67 2220.32 1426.03 2291.03 1383.04 2320.69 1301.82L2329.35 1273.53 2416.9 1309.71C2415.59 1359.71 2385.9 1418.42 2346.35 1449.8 2328.05 1464.31 2305.45 1467.55 2307.55 1495.28 2308.22 1503.97 2318.9 1550.24 2317.07 1553.01 2315.42 1555.56 2297.23 1559.51 2295.46 1556.92 2293.4 1553.89 2290.38 1520.69 2288.34 1513.22 2284.2 1498.06 2275.58 1488.4 2258.86 1489.3 2247.19 1489.92 2212.25 1495.7 2201.04 1498.95 2167.45 1508.67 2187.73 1550.14 2189.81 1574.27 2187.12 1574.3 2173.5 1575.07 2172.83 1574.55 2167.55 1570.66 2166.76 1523.92 2157.6 1510.99 2149.02 1498.84 2118.74 1497.71 2103.89 1493.27 1993.75 1460.27 1911.21 1324.45 1876.87 1221.27 1839.58 1109.25 1819.65 933.234 1904.28 837.662 1912.61 828.251 1946.82 803.404 1942.53 791.908L1918.23 726.714 1931.79 721.659Z" fill="#FDFDFD" fill-rule="evenodd"/></g></svg>