<svg width="1879" height="1922" xmlns="http://www.w3.org/2000/svg" xmlns:xlink="http://www.w3.org/1999/xlink" xml:space="preserve" overflow="hidden"><defs><clipPath id="clip0"><rect x="1042" y="214" width="1879" height="1922"/></clipPath></defs><g clip-path="url(#clip0)" transform="translate(-1042 -214)"><path d="M78.2837 407.263C100.713 382.368 148.28 356.796 177.985 339.056 353.337 234.303 549.404 126.409 732.152 35.1913 759.464 21.5597 787.647 4.97887 818.028 0 926.72 22.5745 1041.55 26.7562 1146.42 63.3251 1320.4 177.19 1501.07 281.145 1674.63 395.565 1762.85 453.742 1798.29 474.311 1803.05 588.61 1811.51 792.363 1804.23 1013.35 1793.38 1217.22 1790.05 1280.06 1787.82 1428.44 1756.59 1477.72 1727.2 1524.11 1600.31 1593.91 1548.95 1625.38 1417.95 1705.7 1279.17 1788.94 1143.14 1860.07 1013.49 1927.89 962.323 1917.88 820.324 1921.56 806.451 1921.92 788.372 1926.8 774.643 1926.58 730.461 1925.86 693.021 1901.93 657.491 1879.16 511.046 1785.34 358.727 1670.7 220.016 1564.95 166.02 1523.79 100.254 1477 50.5848 1432.26-12.4504 1375.49 0.432349 1315.23 2.39019 1238.97 7.46578 1038.9 14.1123 836.352 28.9046 637.071 33.8351 570.7 33.3757 457.053 78.3079 407.239ZM816.264 24.9193C793.762 27.2636 740.298 57.5244 717.651 69.0293 560.739 148.742 399.961 238.412 247.183 326.076 206.263 349.57 111.275 397.958 86.8156 433.995 56.99 477.936 54.8387 582.181 50.6574 637.119 36.9532 816.412 31.8773 996.695 26.5599 1176.18 24.868 1232.98 10.1245 1331.33 36.5905 1381.07 53.7751 1413.38 147.651 1480.87 181.344 1507.02 327.089 1620.09 485.764 1737.67 639.606 1839.11 699.136 1878.37 745.325 1916.14 820.469 1890.35 910.333 1859.51 1026.03 1790.6 1110.87 1743.28 1240.74 1670.87 1394.87 1585.81 1513.64 1498.29 1576.55 1451.94 1571.11 1414.16 1578.12 1340.42 1596.18 1150.15 1599.08 953.769 1599.8 762.682 1600.02 703.997 1602.7 643.017 1599.88 583.945 1595.65 495.943 1573.12 483.06 1505.44 436.678 1336.59 320.977 1149.42 206.58 973.707 100.716 939.168 79.9059 853.534 21.0519 816.288 24.9434ZM860.326 1899.93C904.847 1896.47 949.899 1898.91 994.155 1892.38 1073.92 1880.61 1181.57 1812.55 1253.5 1772.26 1383.24 1699.63 1520.19 1620.96 1644.18 1539.36 1703.52 1500.32 1744.65 1481.54 1756.69 1405.34 1771.17 1313.61 1770.13 1206.49 1773.85 1113.12 1780.96 934.844 1790.14 739.72 1778.88 562.047 1773.97 484.631 1727.95 458.527 1669.8 419.759 1492.47 301.496 1306.7 194.181 1126.15 81.2109 1066.5 68.5216 989.466 44.956 929.258 41.2096 926.648 41.0407 920.098 39.6386 920.751 43.6752 926.986 45.0769 932.956 48.1708 938.395 51.4337 1122.35 162.132 1311.51 279.839 1490 398.949 1554.92 442.286 1610.46 466.383 1619.24 552.5 1629.75 655.73 1621.15 781.003 1619.16 885.924 1616.05 1050.45 1614.98 1228.27 1595.09 1391.17 1583.01 1490.22 1552.99 1499.67 1476.47 1550.5 1283.2 1678.87 1078.02 1788.48 870.815 1892.31 867.891 1893.76 861.026 1896.69 860.35 1899.93Z" fill="#0D0E0E" fill-rule="evenodd" transform="matrix(-0.993185 0.116551 0.116551 0.993185 2765.98 118.696)"/><path d="M795.343 0.184055C832.588-3.70745 918.247 55.1707 952.761 75.9567 1128.48 181.821 1315.65 296.217 1484.5 411.919 1552.18 458.301 1574.73 471.183 1578.93 559.186 1581.76 618.257 1579.08 679.238 1578.86 737.922 1578.13 929.01 1575.26 1125.39 1557.18 1315.66 1550.17 1389.4 1555.61 1427.2 1492.69 1473.53 1373.9 1561.05 1219.77 1646.08 1089.93 1718.52 1005.09 1765.85 889.388 1834.75 799.524 1865.59 724.355 1891.38 678.167 1853.61 618.66 1814.35 464.819 1712.89 306.143 1595.3 160.399 1482.26 126.706 1456.11 32.8297 1388.65 15.645 1356.31-10.821 1306.57 3.92254 1208.22 5.6144 1151.42 10.9318 971.936 16.0074 791.652 29.7119 612.36 33.9174 557.422 36.0445 453.201 65.8701 409.236 90.3299 373.223 185.318 324.81 226.237 301.317 379.016 213.653 539.794 123.982 696.705 44.2699 719.352 32.7651 772.84 2.50423 795.318 0.159875ZM790.412 116.248C777.287 117.022 755.027 129.904 742.628 136.14 546.924 234.898 357.625 348.932 164.218 452.017 121.968 483.921 129.848 547.947 126.319 595.393 112.784 776.884 105.291 957.555 102.27 1139.34 101.037 1214.09 79.9853 1282.21 140.797 1337.46 204.944 1395.73 293.865 1455.09 364.852 1507.37 441.422 1563.76 518.669 1620.05 596.883 1674.14 630.31 1697.25 717.684 1764.52 753.456 1766.52 758.918 1766.84 764.478 1766.67 769.891 1765.85 955.057 1672.31 1138.75 1573.26 1317.12 1467.13 1348.42 1448.52 1427.8 1407.12 1444.06 1378.96 1465.99 1340.96 1467.48 1241.45 1470.29 1194.9 1475.94 1101.41 1477.18 1007.97 1479.76 914.339 1482.59 811.738 1490.32 705.341 1484.79 602.547 1483.61 580.552 1481.09 553.071 1467.77 534.968 1454.46 516.865 1404.26 488.465 1382.99 474.736 1246.89 387.024 1107.35 304.072 970.091 218.124 930.452 193.302 891.2 164.975 851.247 141.192 834.981 131.523 809.748 115.039 790.412 116.2Z" fill="#FDFDFD" fill-rule="evenodd" transform="matrix(-0.993185 0.116551 0.116551 0.993185 2748.08 145.701)"/><path d="M0.0241798 1859.09C0.700853 1855.85 7.58957 1852.92 10.4897 1851.47 217.699 1747.64 422.877 1638.03 616.14 1509.66 692.662 1458.83 722.656 1449.38 734.766 1350.33 754.657 1187.45 755.745 1009.64 758.839 845.086 760.821 740.189 769.425 614.916 758.911 511.662 750.138 425.521 694.619 401.447 629.675 358.111 451.18 238.977 262.05 121.294 78.069 10.5954 72.6549 7.33261 66.6608 4.23868 60.4249 2.83698 59.7721-1.19925 66.2981 0.202461 68.9326 0.371719 129.14 4.11814 206.17 27.6837 265.821 40.373 446.37 153.343 632.164 260.657 809.475 378.921 867.628 417.69 913.647 443.817 918.554 521.209 929.793 698.883 920.608 894.03 913.527 1072.28 909.804 1165.65 910.844 1272.77 896.366 1364.5 884.329 1440.71 843.192 1459.49 783.855 1498.52 659.863 1580.12 522.916 1658.79 393.172 1731.42 321.242 1771.69 213.589 1839.78 133.829 1851.55 89.598 1858.07 44.5211 1855.63 0 1859.09Z" fill="#FDFDFD" fill-rule="evenodd" transform="matrix(-0.993185 0.116551 0.116551 0.993185 1916.3 259.526)"/><path d="M692.668 0.0581037C712.003-1.1018 737.237 15.3578 753.503 25.0499 793.456 48.8331 832.708 77.1602 872.347 101.983 1009.61 187.931 1149.14 270.882 1285.24 358.595 1306.54 372.323 1356.66 400.65 1370.03 418.826 1383.4 437.002 1385.86 464.411 1387.05 486.405 1392.58 589.2 1384.85 695.596 1382.02 798.197 1379.43 891.832 1378.2 985.273 1372.54 1078.76 1369.74 1125.31 1368.24 1224.82 1346.32 1262.82 1330.08 1290.97 1250.68 1332.38 1219.38 1350.99 1041 1457.12 857.313 1556.17 672.147 1649.7 666.734 1650.53 661.174 1650.67 655.712 1650.38 619.94 1648.35 532.566 1581.11 499.139 1558 420.901 1503.91 343.678 1447.64 267.108 1391.23 196.121 1338.95 107.224 1279.59 43.0527 1221.32-17.783 1166.06 3.26896 1097.95 4.52595 1023.2 7.54698 841.389 15.0398 660.743 28.5747 479.251 32.1035 431.806 24.2242 367.779 66.4735 335.875 259.881 232.766 449.156 118.733 644.884 19.9985 657.259 13.7385 679.543 0.879856 692.668 0.106463ZM707.798 33.2678C709.369 31.6001 706.662 27.3943 703.762 26.4758 687.616 21.3518 666.347 34.6695 652.159 41.7029 459.815 137.319 271.821 253.335 80.9994 352.746 52.189 373.459 53.4215 417.328 50.4004 450.247 31.0404 661.347 21.6864 895.796 23.9102 1107.74 24.1516 1130.34 20.0912 1151.17 30.6051 1173.34 43.5843 1200.72 113.146 1248.6 140.071 1269.32 230.684 1339.07 323.811 1407.11 417.01 1473.36 479.852 1518.03 550.428 1571.49 616.17 1610.16 633.427 1620.31 648.461 1631.26 669.779 1627.88 671.93 1627.54 677.054 1626.86 676.377 1623.7 658.588 1619.1 641.041 1606.25 625.306 1596.19 483.839 1505.8 339.69 1399.42 205.329 1298.32 172.168 1273.38 103.937 1227.94 79.3317 1199.54 40.7808 1154.99 56.2978 1044.54 57.7237 986.892 61.8328 822.947 67.7301 654.942 81.8212 491.336 87.2836 427.938 79.1866 376.48 138.185 339.839 235.759 279.245 351.195 226.675 453.216 171.471 535.612 126.902 617.04 80.4231 699.315 35.6121 702.456 33.8961 707.508 33.5818 707.798 33.2678ZM721.623 50.7667C541.654 155.036 352.355 243.715 171.999 347.09 141.424 364.613 118.995 371.743 111.454 409.811 105.266 440.99 103.719 482.997 101.157 515.53 89.1689 667.486 83.1507 820.023 79.4768 972.414 78.1715 1026 71.7425 1090.9 76.9874 1143.9 77.6882 1150.89 80.6371 1162.34 83.7306 1168.58 98.0635 1197.61 218.14 1280.97 251.252 1305.6 372.682 1395.92 501.967 1491.61 629.197 1572.99 640.992 1580.53 686.625 1611.13 696.873 1611.35 701.176 1611.44 708.523 1607.62 712.729 1605.67 739.751 1593.1 769.576 1575.5 796.429 1561.27 903.55 1504.44 1010.36 1445.27 1115.47 1384.83 1171.43 1352.66 1264.96 1306.03 1311.83 1266.97 1341.94 1241.88 1342.43 1197.41 1345.84 1160.79 1359.49 1014.86 1360.24 862.61 1362.68 715.995 1363.94 639.594 1371.24 549.924 1365.29 474.32 1363.41 450.344 1356.86 436.543 1338.42 421.437 1138.07 296.841 937.388 171.979 735.449 50.3557L721.623 50.7909Z" fill="#0D0E0E" fill-rule="evenodd" transform="matrix(-0.993185 0.116551 0.116551 0.993185 2664.55 272.491)"/><path d="M646.661 0.434875 660.486 0C862.426 121.647 1063.13 246.509 1263.45 371.081 1281.89 386.187 1288.44 399.988 1290.33 423.964 1296.28 499.592 1289 589.238 1287.72 665.64 1285.28 812.254 1284.53 964.525 1270.87 1110.44 1267.44 1147.06 1266.96 1191.53 1236.87 1216.62 1189.98 1255.65 1096.46 1302.28 1040.51 1334.47 935.394 1394.92 828.588 1454.09 721.466 1510.91 694.614 1525.15 664.788 1542.74 637.766 1555.31 633.561 1557.27 626.213 1561.09 621.911 1560.99 611.662 1560.77 566.03 1530.17 554.235 1522.63 427.004 1441.28 297.72 1345.56 176.29 1255.24 143.153 1230.61 23.0765 1147.25 8.76824 1118.22 5.67431 1111.96 2.72546 1100.53 2.02461 1093.54-3.22024 1040.54 3.23323 975.643 4.51404 922.058 8.18793 769.667 14.2062 617.131 26.1947 465.174 28.7566 432.642 30.3034 390.634 36.4909 359.455 44.0563 321.387 66.4858 314.258 97.0367 296.734 277.369 193.359 466.692 104.68 646.661 0.411056ZM359.691 739.479C351.86 730.318 344.996 716.759 339.123 705.689 308.765 648.6 281.356 585.275 248.945 529.998 226.201 491.181 220.327 500.051 179.674 497.755 159.177 496.595 115.865 486.734 108.856 516.415 104.408 535.267 104.529 569.806 103.417 590.737 98.0999 691.429 94.692 792.266 91.5259 893.055 90.5833 922.639 75.3803 983.329 117.388 990.266 134.089 993.021 180.568 995.849 196.013 992.707 218.635 988.115 220.69 962.446 221.922 943.69 225.5 889.091 223.953 833.838 226.781 779.311 226.926 776.58 225.21 772.664 229.174 773.317L339.969 975.522C354.664 1009.63 395.004 1002.86 426.279 1002.79 431.21 1002.79 435.682 1005.18 440.419 1005.06 461.422 1004.53 476.77 996.139 479.936 974.458 483.707 948.669 481.508 916.717 482.885 890.396 488.565 782.211 497.194 672.746 499.998 564.295 500.578 542.204 499.756 516.415 473.459 510.88 461.495 508.366 401.771 505.659 390.484 507.931 375.257 511.025 367.909 525.599 366.99 540.029L359.691 739.406ZM659.422 705.641 659.422 660.926C659.422 649.253 681.997 657.18 689.538 657.398 722.264 658.34 770.217 663.199 800.817 659.718 837.724 655.513 828.757 603.934 828.491 576.235 828.443 571.28 830.956 566.712 830.811 562.047 830.255 542.518 817.639 528.814 798.399 526.759 722.651 518.662 640.352 523.666 563.879 517.043 530.452 525.551 537.63 555.111 536.107 581.118 528.977 703.586 519.551 828.231 516.699 950.845 515.974 982.435 513.944 1008.1 552.156 1012.28 568.036 1014.02 598.152 1014.65 614.273 1014.07 637.718 1013.23 647.458 999.958 649.706 977.504 652.969 945.044 650.286 906.59 652.051 873.501 652.316 868.643 654.685 842.177 655.628 840.823 660.437 833.911 760.09 841.839 776.042 840.388 792.865 836.424 800.236 827.989 801.977 810.732 803.717 793.474 806.496 749.703 804.2 733.654 801.735 716.324 787.885 709.701 771.764 708.082L659.398 705.641ZM869.072 534.614C835.718 540.27 843.525 588.03 843.21 612.683 843.114 619.862 840.213 626.291 840.528 634.364 842.244 679.368 891.454 667.549 921.763 669.289 930.295 669.773 953.063 670.377 954.295 677.845 952.023 772.326 947.504 866.419 944.724 960.73 943.878 989.178 931.648 1029.25 973.003 1036.19 986.659 1038.48 1015.11 1038.9 1030.31 1039.31 1056.61 1040.01 1072.34 1031.62 1075.12 1004.12 1078.17 973.903 1076.11 938.156 1077.47 907.363 1079.59 859.192 1082.54 810.562 1084.79 762.416 1085.3 751.54 1084.93 685.725 1089.48 682.534 1116.35 680.891 1150.97 687.876 1177.7 683.743 1211.75 678.474 1203.25 625.88 1203.12 600.429 1203.05 586.628 1208.51 568.428 1196.12 556.899 1180.28 542.18 1127.16 547.376 1105.26 546.24 1026.88 542.131 947.915 536.814 869.072 534.639Z" fill="#FEFEFE" fill-rule="evenodd" transform="matrix(-0.993185 0.116551 0.116551 0.993185 2595.96 331.217)"/><path d="M684.462 7.93891C684.148 8.25289 679.12 8.56722 675.979 10.2833 593.704 55.0942 512.276 101.573 429.88 146.142 327.859 201.322 212.399 253.916 114.849 314.51 55.8506 351.152 63.9476 402.585 58.4851 466.007 44.3941 629.614 38.4968 797.618 34.3876 961.563 32.9376 1019.21 17.4448 1129.67 55.9957 1174.21 80.5764 1202.61 148.832 1248.05 181.993 1272.99 316.378 1374.1 460.503 1480.44 601.97 1570.86 617.681 1580.92 635.252 1593.78 653.041 1598.37 653.694 1601.53 648.594 1602.21 646.443 1602.55 625.125 1605.96 610.115 1594.98 592.834 1584.83 527.092 1546.16 456.516 1492.7 393.674 1448.03 300.474 1381.78 207.324 1313.74 116.735 1243.99 89.8095 1223.28 20.2724 1175.39 7.26909 1148.01-3.24478 1125.82 0.815617 1105.01 0.57418 1082.41-1.64964 870.467 7.70433 636.018 27.0644 424.918 30.0854 392.023 28.853 348.131 57.6634 327.417 248.461 227.982 436.455 111.966 628.823 16.374 643.011 9.31644 664.28-3.97703 680.425 1.14692 683.35 2.06539 686.057 6.27123 684.462 7.93891Z" fill="#FDFDFD" fill-rule="evenodd" transform="matrix(-0.993185 0.116551 0.116551 0.993185 2644.32 300.367)"/><rect x="0" y="0" width="1186.33" height="668.354" fill="#FFFFFF" transform="matrix(-0.993185 0.116551 0.116551 0.993185 2585.08 763.898)"/><path d="M1810.5 1197.58 1779.45 1000.5C1777.59 986.166 1782.01 970.453 1796.36 964.499 1806.97 960.087 1866.11 951.298 1878.36 951.491 1905.26 951.879 1910.98 977.037 1914.65 998.83 1932.67 1105.78 1945.19 1214.9 1960.35 1322.17 1964.04 1348.26 1972.32 1379.2 1973.56 1405.24 1974.61 1427.12 1961.15 1438.29 1940.64 1442.84 1936.02 1443.87 1931.16 1442.35 1926.33 1443.32 1895.65 1449.39 1857.37 1463.73 1836.39 1433.1L1688.9 1255.88C1684.88 1256 1687.32 1259.51 1687.7 1262.22 1695.37 1316.28 1707.48 1370.21 1714.43 1424.49 1716.82 1443.13 1719.72 1468.72 1698.4 1477.56 1683.84 1483.6 1637.68 1489.73 1620.76 1490.23 1578.21 1491.47 1581.52 1428.99 1576.75 1399.78 1560.54 1300.25 1544.56 1200.63 1530.48 1100.79 1527.56 1080.03 1520.83 1046.15 1521.58 1026.8 1522.77 996.324 1567.17 997.702 1587.51 994.913 1627.85 989.375 1631.91 979.544 1661.67 1013.28 1704.05 1061.33 1743.09 1118.23 1783.85 1168.43 1791.76 1178.17 1801.07 1190.17 1810.51 1197.66ZM1885.02 976.763C1878.78 972.539 1833.69 981.369 1823.99 983.287 1816.19 984.811 1810.74 980.629 1804.19 988.335 1799.56 993.77 1802.25 1014.2 1803.39 1022.82 1812.87 1094.33 1829.97 1165.88 1838.05 1237.76 1838.51 1241.89 1839.75 1260.21 1836.5 1261.51 1830.97 1261.93 1827.48 1259.58 1823.81 1255.94 1797.22 1229.58 1765.24 1178.69 1740.43 1147.21 1705.74 1103.26 1670.83 1059.32 1634.81 1016.44 1626.62 1011.21 1609.03 1013.56 1598.77 1014.88 1589.59 1016.03 1547.79 1023.18 1544.18 1028.57 1542.47 1031.12 1542.95 1036.1 1543.21 1039.22 1548.32 1098.44 1563.11 1163.84 1571.89 1223.39 1580.11 1279.27 1588.09 1334.89 1597.19 1390.84 1600.71 1412.39 1600.55 1436.65 1607.58 1457.76 1608.65 1461 1609.32 1463.8 1612.66 1465.51 1618.27 1468.38 1681.56 1458.44 1689.72 1455.19 1696.3 1452.58 1695.5 1443.94 1694.96 1438.11 1688.51 1367.76 1668.35 1293.8 1660.44 1223.27 1659.98 1219.14 1658.74 1200.79 1661.99 1199.52L1670.86 1201.58C1735.49 1275.15 1795.51 1353.64 1861.5 1426.38 1865.29 1428.72 1870.03 1428.95 1874.37 1428.69 1885.05 1428.04 1903.83 1425.35 1914.89 1423.59 1924.68 1422.02 1947.32 1420.01 1950.75 1410.48 1950.69 1398.45 1949.47 1383.86 1947.88 1371.46 1933.66 1259.53 1914.47 1147.66 1897.18 1036.52 1895.37 1024.86 1893.9 982.785 1885.03 976.786Z" fill="#0D0E0E" fill-rule="evenodd"/><path d="M2098.19 1106.93 2208.94 1087.79C2225.07 1086.29 2239.94 1090.14 2245.68 1106.67 2250.98 1121.99 2256.63 1165.29 2258.27 1182.75 2259.9 1200.21 2254.27 1209.71 2238.5 1216.83 2223.09 1221.31 2123.79 1232.62 2120.4 1240.33 2119.73 1241.84 2122.48 1268.29 2123.15 1273.09 2127.73 1305.91 2137.76 1343.13 2140.78 1375.61 2142.88 1398.08 2135.86 1412.97 2113.01 1418.29 2097.3 1421.95 2067.62 1427.11 2051.7 1428.44 2013.43 1431.68 2010.47 1406.08 2005.13 1374.94 1984.43 1254.05 1969.79 1129.91 1953.32 1008.34 1949.83 982.528 1937.12 954.891 1968.3 940.135 2044.6 931.984 2124.41 911.301 2200.33 904.726 2219.61 903.056 2234.62 914.088 2238.91 933.149 2239.92 937.704 2238.35 942.664 2239.35 947.518 2244.91 974.629 2263.57 1023.54 2228.19 1034.76 2198.83 1044.06 2150.8 1048.46 2118.53 1053.81 2111.08 1055.04 2087.41 1051.58 2089.64 1063.04L2098.21 1106.93ZM2213.25 929.908C2210.59 928.114 2188.16 929.661 2183.11 930.302 2129.67 937.192 2071.04 945.931 2018.14 955.005 2008.58 956.649 1971.32 961.437 1969.15 969.594 1968.5 972.061 1971.46 998.966 1972.19 1004.61 1988.1 1124.02 2005.67 1245.03 2025.07 1363.68 2026.46 1372.2 2030.01 1401.23 2036.98 1404.38 2043.95 1407.52 2102.03 1398.1 2111.12 1394.85 2114.66 1393.57 2117.92 1391.72 2119.91 1388.41 2117.22 1374.03 2117.07 1357.86 2114.98 1343.88 2110.02 1310.89 2100.36 1274.29 2097.3 1241.34 2095.96 1227.05 2098.73 1219.29 2113 1214.83 2143.13 1205.4 2188.82 1205.35 2220.78 1198.98 2240.69 1195.02 2237.9 1185.64 2235.71 1167.62 2234.76 1159.88 2226.07 1112.6 2222.22 1110.91 2204.66 1114.54 2185.32 1115.14 2168.11 1117.83 2149.12 1120.82 2099.9 1136.39 2085.88 1126.75 2075.78 1119.8 2072.66 1093.99 2071.06 1081.5 2069.85 1072 2067.58 1050.7 2072.3 1043.18 2078.08 1033.97 2113.86 1029.65 2125.86 1027.57 2147.68 1023.76 2173.45 1022.59 2195.43 1019.11 2241.27 1011.86 2227.21 1009.09 2221.68 970.693 2220.3 961.088 2221.66 935.606 2213.23 929.936Z" fill="#0D0E0E" fill-rule="evenodd"/><path d="M2271.18 898.896C2348.95 885.926 2427.49 875.983 2505.21 865.018 2526.9 861.965 2578.07 846.655 2596.42 858.068 2610.83 867.002 2608.93 885.916 2611.65 899.447 2616.67 924.399 2635.07 974.392 2602.66 986.09 2577.21 995.269 2541.9 995.047 2515.84 1001.81 2511.99 1005.81 2524.96 1070.34 2526.55 1081.11 2533.57 1128.8 2539.99 1177.09 2547.14 1224.77 2551.71 1255.26 2560.58 1289.95 2563.38 1320.18 2565.95 1347.71 2552.09 1358.96 2526.14 1363.31 2511.14 1365.82 2483.14 1370.87 2469.3 1371.23 2427.38 1372.35 2431.73 1330.67 2427.09 1302.59 2411.74 1209.5 2398.14 1116.28 2382.27 1023.12 2379.62 1016.02 2357.16 1019.79 2348.7 1020.95 2318.61 1025.05 2272.58 1046.08 2262.27 1002.24 2260.42 994.38 2262.03 987.515 2260.75 980.451 2256.33 956.194 2239.52 910.816 2271.17 898.873ZM2598.73 961.812C2600.45 959.26 2599.97 954.28 2599.7 951.156 2598.41 936.46 2594.23 901.961 2590.06 888.935 2587.87 882.099 2585.41 877.334 2577.47 877.037 2492.94 887.805 2409.62 901.907 2325.33 914.918 2313.14 916.806 2277.58 914.909 2274.2 929.778 2277.57 948.034 2278.42 968.159 2281.33 986.086 2282.3 992.053 2283.25 1003.12 2288.78 1005.93 2297.83 1010.54 2348.06 998.027 2361.14 996.385 2378.66 994.17 2394.5 991.176 2401.31 1010.16 2411.26 1037.9 2413.43 1088.77 2418.22 1119.45 2426.72 1173.84 2436.1 1227.67 2445.2 1281.84 2448.22 1299.87 2446.96 1321.64 2453.86 1339.08 2458.7 1351.24 2481.67 1346.65 2493.05 1345.15 2501.21 1344.07 2534.69 1338.2 2539.17 1334.81 2540.96 1333.48 2542.21 1330.96 2542.42 1328.76L2493.01 990.558C2493.94 987.889 2496.04 985.433 2498.35 983.851 2516.38 971.661 2590.46 974.065 2598.73 961.812Z" fill="#0D0E0E" fill-rule="evenodd"/></g></svg>