<?xml version="1.0" encoding="UTF-8"?>
<svg id="Layer_1" data-name="Layer 1" xmlns="http://www.w3.org/2000/svg" viewBox="0 0 73.8 19.01">
  <defs>
    <style>
      .cls-1 {
        fill: #0c0b0e;
      }

      .cls-2 {
        fill: #060707;
      }
    </style>
  </defs>
  <g>
    <path class="cls-1" d="M1.64,16.02c-.55-.32-.96-.77-1.23-1.33s-.4-1.2-.4-1.91c0-.48.05-.97.16-1.48s.26-1.02.46-1.53l1.52.58c-.15.42-.27.83-.38,1.23s-.15.77-.15,1.11c0,.37.06.7.19,1.01s.35.55.66.74.73.28,1.27.28c.45,0,.84-.04,1.17-.12s.6-.18.81-.3.37-.24.47-.37.16-.23.16-.32c0-.04-.01-.07-.03-.08s-.06-.02-.12-.02h-.95c-.18,0-.38-.02-.6-.05s-.43-.11-.63-.24-.36-.33-.49-.59-.19-.64-.19-1.11c0-.41.07-.81.2-1.19s.33-.73.58-1.03.56-.55.91-.73.75-.27,1.19-.27c.31,0,.61.05.91.14s.56.23.8.4l-.57,1.61c-.21-.12-.42-.2-.61-.25s-.36-.07-.51-.07c-.27,0-.5.06-.7.18s-.34.28-.45.49-.16.44-.16.71c0,.09.03.14.1.16s.14.03.22.03h.83c.46,0,.83.07,1.1.21s.45.34.57.59.17.54.17.86c0,.44-.09.85-.28,1.23s-.45.72-.81,1.01-.79.52-1.31.68-1.11.25-1.78.25c-.84,0-1.54-.16-2.09-.49Z"/>
    <path class="cls-1" d="M7.92,15.07c.55-.12,1.03-.27,1.45-.46s.74-.44.97-.76.35-.76.35-1.3c0-.36-.06-.77-.18-1.23s-.24-.88-.37-1.26l1.69-.55c.16.44.28.91.36,1.42s.12,1,.12,1.47c0,.85-.16,1.58-.47,2.17s-.76,1.07-1.32,1.43-1.21.61-1.95.76l-.64-1.69ZM10.68,8.02l-.97.97-.97-.97.97-.97.97.97ZM11.71,6.52l-.97.97-.97-.97.97-.97.97.97ZM12.74,8.02l-.97.97-.97-.97.97-.97.97.97Z"/>
    <path class="cls-1" d="M16.49,8.86c.29.18.54.41.74.71s.36.64.48,1.01.19.76.23,1.15h.39v1.82h-.5c-.16.62-.42,1.14-.77,1.56s-.81.76-1.35,1.03-1.19.47-1.92.61l-.63-1.69c.47-.09.92-.21,1.34-.36s.78-.32,1.08-.51.49-.41.59-.64h-.47c-.8,0-1.41-.17-1.83-.5s-.64-.89-.64-1.65c0-.29.04-.6.13-.92s.23-.63.41-.91.42-.52.71-.7.63-.27,1.02-.27.72.09,1.01.26ZM16.37,11.74c-.02-.12-.04-.26-.08-.42s-.09-.3-.16-.45-.16-.26-.26-.35-.24-.14-.4-.14c-.17,0-.3.05-.4.16s-.17.23-.22.38-.06.28-.06.41c0,.2.09.31.26.35s.38.06.63.06h.7Z"/>
    <path class="cls-1" d="M18.52,11.74c.4,0,.65-.09.75-.26s.15-.46.15-.85v-5.31h1.69v5.48c0,.91-.2,1.6-.61,2.06s-1.07.7-1.99.7h-.43v-1.82h.43Z"/>
    <path class="cls-1" d="M25.64,8.86c.29.18.54.41.74.71s.36.64.48,1.01.19.76.23,1.15h.39v1.82h-.5c-.16.62-.42,1.14-.77,1.56s-.81.76-1.35,1.03-1.19.47-1.92.61l-.63-1.69c.47-.09.92-.21,1.34-.36s.78-.32,1.08-.51.49-.41.59-.64h-.47c-.8,0-1.41-.17-1.83-.5s-.64-.89-.64-1.65c0-.29.04-.6.13-.92s.23-.63.41-.91.42-.52.71-.7.63-.27,1.02-.27.72.09,1.01.26ZM25.52,11.74c-.02-.12-.04-.26-.08-.42s-.09-.3-.16-.45-.16-.26-.26-.35-.24-.14-.4-.14c-.17,0-.3.05-.4.16s-.17.23-.22.38-.06.28-.06.41c0,.2.09.31.26.35s.38.06.63.06h.7Z"/>
    <path class="cls-1" d="M28.9,7.38l-1.05,1.04-1.03-1.04,1.03-1.03,1.05,1.03ZM27.66,11.74v1.82h-.42v-1.82h.42ZM30.64,9.23l.12,1.73c.01.18.05.33.11.45s.16.2.28.25.29.08.5.08h.12v1.82h-.13c-.25,0-.49-.03-.7-.1s-.4-.15-.57-.26-.31-.23-.44-.38c-.24.22-.52.4-.84.53s-.67.2-1.04.2h-.56v-1.82h.56c.42,0,.7-.07.86-.2s.23-.39.23-.76c0-.23,0-.47-.02-.69s-.03-.45-.05-.67l1.56-.19ZM30.88,7.38l-1.04,1.04-1.04-1.04,1.04-1.03,1.04,1.03Z"/>
    <path class="cls-1" d="M32.6,15.08l-.97.97-.97-.97.97-.97.97.97ZM32,11.74v1.82h-.47v-1.82h.47ZM33.62,16.58l-.97.97-.97-.97.97-.97.97.97ZM34.99,9.23l.12,1.73c.01.18.05.33.11.45s.16.2.28.25.29.08.5.08h.12v1.82h-.13c-.25,0-.49-.03-.7-.1s-.4-.15-.57-.26-.31-.23-.44-.38c-.24.22-.52.4-.84.53s-.67.2-1.04.2h-.56v-1.82h.56c.42,0,.7-.07.86-.2s.23-.39.23-.76c0-.23,0-.47-.02-.69s-.03-.45-.05-.67l1.56-.19ZM34.65,15.08l-.97.97-.97-.97.97-.97.97.97Z"/>
    <path class="cls-1" d="M37.49,15.3l-1.05,1.04-1.03-1.04,1.03-1.03,1.05,1.03ZM36.78,11.74v1.82h-.88v-1.82h.88ZM36.62,13.55v-1.82h.94c.28,0,.47-.09.57-.26s.16-.4.16-.67-.03-.56-.1-.88-.13-.63-.21-.94l1.63-.42c.08.38.14.75.18,1.12s.07.73.07,1.07c0,.53-.07,1.01-.21,1.43s-.38.76-.72,1-.8.37-1.4.37h-.93ZM39.47,15.3l-1.04,1.04-1.04-1.04,1.04-1.03,1.04,1.03Z"/>
    <path class="cls-1" d="M44.65,13.51c-.15-.03-.28-.07-.39-.13-.11.61-.33,1.15-.65,1.61s-.74.84-1.25,1.13-1.1.51-1.77.64l-.63-1.69c.55-.12,1.03-.27,1.45-.46s.74-.44.97-.76.35-.76.35-1.3c0-.36-.06-.77-.18-1.23s-.24-.88-.37-1.26l1.69-.55.35,1.35c.06.24.15.45.27.62s.3.26.55.26h.23v1.82h-.16c-.15,0-.3-.01-.45-.04Z"/>
    <path class="cls-1" d="M48.18,8.73c.27.17.51.35.72.53s.39.36.54.55.26.4.34.62.11.46.11.72c0,.64-.15,1.13-.44,1.48s-.7.59-1.21.72-1.11.2-1.78.2h-1.43v-1.82h1.42c.4,0,.73-.02,1-.05s.48-.09.62-.18.21-.21.21-.38c0-.08-.06-.18-.19-.3s-.29-.25-.5-.38-.43-.28-.67-.42-.47-.28-.69-.42-.42-.26-.58-.38c-.17-.12-.3-.28-.39-.49s-.13-.42-.13-.63c0-.23.05-.45.16-.65s.27-.35.49-.43l4.58-1.87v1.8l-3.06,1.24c.32.19.62.37.88.54Z"/>
  </g>
  <path class="cls-2" d="M63.74.01c6.93-.35,11.91,6.42,9.41,12.93-2.63,6.85-11.7,8.23-16.25,2.42C52.22,9.4,56.14.39,63.74.01ZM70.27,15.38c3.29-3.31,3.19-8.91-.28-12.06-2.76-2.51-7.02-2.92-10.18-.92-4.61,2.93-5.13,9.61-1.11,13.29,3.38,3.09,8.35,2.92,11.57-.32h0Z"/>
  <path class="cls-2" d="M64.25,2.68l-.17,1.16.85-.02.15-1.13,1.18.06-.14,1.19c1.14.28,2.1,1.09,2.72,2.06l-1.8,1.58c-.12-.42-.21-.78-.49-1.12-.94-1.13-2.76-.92-3.71.09-1.27,1.36-1.89,5.27.15,6.19,1.3.59,2.81.05,3.48-1.19.08-.15.13-.31.2-.45.01-.02,0-.04.04-.03l1.43,1.43c-.7,1.24-1.9,2.08-3.29,2.38l-.18,1.42-1.16-.05.17-1.33c-.29,0-.56-.06-.84-.09l-.2,1.37-1.17-.07.23-1.66c-2.2-1.12-2.59-3.92-2.11-6.12.4-1.8,1.51-3.46,3.25-4.2l.22-1.53,1.2.07h0Z"/>
</svg>