<?xml version="1.0" encoding="UTF-8"?>
<svg id="Layer_1" data-name="Layer 1" xmlns="http://www.w3.org/2000/svg" viewBox="0 0 660 660">
  <defs>
    <style>
      .cls-1 {
        fill: #ffe866;
      }

      .cls-1, .cls-2, .cls-3, .cls-4, .cls-5 {
        fill-rule: evenodd;
      }

      .cls-2 {
        fill: #fff;
      }

      .cls-3 {
        fill: #35af00;
      }

      .cls-4 {
        fill: #4bcc00;
      }

      .cls-5 {
        fill: #0d1217;
      }
    </style>
  </defs>
  <path class="cls-1" d="M660,328.52c.82,182.26-146.26,330.66-328.5,331.48C149.24,660.82.84,513.74,0,331.49-.82,149.24,146.26.83,328.53,0c182.24-.8,330.65,146.25,331.47,328.5h0Z"/>
  <path class="cls-4" d="M497.64,211.74c-23.93-6.92-48.69-16.79-73.82-26.72-1.44-6.3-7.01-14.16-18.31-23.79-16.4-14.26-47.22-13.89-73.84-7.58-29.39-6.93-58.44-9.41-86.31-2.71-227.88,62.93-98.68,216.38-182.36,370.68,11.91,25.29,143.29,146.83,325.94,133.34,0,0-63.5-152.9,79.81-226.3,116.25-59.52,200.23-170.07,28.86-216.93l.03.03h0Z"/>
  <path class="cls-2" d="M347,247.99c0,35.36-28.44,64.01-63.5,64.01s-63.5-28.64-63.5-64.01,28.44-63.99,63.5-63.99,63.5,28.64,63.5,63.99Z"/>
  <path class="cls-4" d="M578,340.09c-51.71,36.45-110.58,64.1-194.01,64.1-39.06,0-46.99-41.51-72.81-21.16-13.34,10.51-60.32,34.01-97.61,32.23-37.62-1.8-97.69-23.67-114.59-103.26-6.67,79.59-10.08,138.24-39.98,205.44,73.39,107.1,201.35,160.38,330.19,137.21-13.83-96.65,70.63-191.3,118.21-239.74,18.01-18.34,52.53-48.29,70.6-74.81h0Z"/>
  <path class="cls-5" d="M348,248c0,28.72-16.79,52-37.5,52s-37.5-23.28-37.5-52,16.79-52,37.5-52,37.5,23.28,37.5,52Z"/>
  <path class="cls-3" d="M326,153.9c20.38,8.04,94.8,32.5,127,42.11-32.88-53.83-82.7-50.72-127-42.11Z"/>
  <path class="cls-2" d="M311,247.5l-45-29.5v59l45-29.5Z"/>
</svg>