<?xml version="1.0" encoding="UTF-8"?>
<svg id="Layer_1" data-name="Layer 1" xmlns="http://www.w3.org/2000/svg" viewBox="0 0 1863 660">
  <defs>
    <style>
      .cls-1 {
        fill: none;
      }

      .cls-2 {
        fill-rule: evenodd;
      }
    </style>
  </defs>
  <g>
    <path class="cls-2" d="M1505.18,217.5c28.28,0,50.65,7.43,67.12,22.32,16.78,14.56,25.17,32.85,25.17,54.85l-1.4,16.28-56.39,3.25c.62-1.23.93-4.49.93-9.76,0-9.92-3.27-18.12-9.79-24.63-6.21-6.82-15.06-10.22-26.57-10.22-14.6,0-26.41,5.42-35.42,16.27-8.7,10.85-13.04,25.1-13.04,42.77,0,19.22,4.81,34.39,14.44,45.56,9.94,10.84,24.08,16.27,42.42,16.27,26.09,0,46.13-8.51,60.11-25.57l31.24,39.98c-8.09,10.22-20.35,19.06-36.82,26.49s-36.05,11.16-58.73,11.16c-36.35,0-65.1-10.23-86.23-30.68-20.81-20.76-31.22-47.72-31.22-80.88s10.56-61.04,31.69-81.81c21.13-21.07,48.62-31.6,82.49-31.6v-.03Z"/>
    <path class="cls-2" d="M1273.57,394.16c22.63,0,41.54-8.38,56.73-25.1l30.23,34.86c-8.37,10.84-20.76,19.99-37.2,27.42-16.12,7.43-35.19,11.16-57.2,11.16-36.28,0-65.11-10.38-86.51-31.15-21.08-20.76-31.62-47.88-31.62-81.36s10.23-60.13,30.69-80.89c20.46-21.07,47.59-31.61,81.39-31.61,31.31,0,55.97,9.61,73.95,28.83,17.98,19.22,26.97,44.16,26.97,74.85l-1.86,23.25h-147.89c2.78,15.17,9.45,27.27,19.99,36.26,10.55,8.99,24.66,13.49,42.33,13.49h0ZM1260.08,265.84c-12.72,0-23.56,4.03-32.56,12.09-8.68,7.75-14.11,18.91-16.27,33.48h91.62c-.31-13.33-4.35-24.17-12.1-32.55-7.44-8.68-17.67-13.02-30.69-13.02Z"/>
    <path class="cls-2" d="M1056.83,220.29h50.17v211.2c0,32.26-11.16,58.15-33.44,77.69-22.31,19.54-52.19,29.31-89.66,29.31-39.95,0-72.76-8.69-98.47-26.06l6.35-43.93c20.13,15.19,63.17,18.81,90.73,18.81,18.57,0,33.29-4.65,44.13-13.95,11.15-9,16.72-22.34,16.72-40.01v-26.99c-14.24,20.78-36.24,31.17-65.96,31.17s-52.95-9.62-71.54-28.84c-18.58-19.54-27.86-46.68-27.86-81.41s8.82-59.7,26.48-79.56c17.65-20.16,41.49-30.24,71.53-30.24,34.99,0,58.99,14.73,71.99,44.19h1.4c-.31-3.41.31-9.62,1.85-18.62,1.56-8.99,3.41-16.59,5.58-22.8h0ZM993.19,384.04c15.17,0,27.26-5.28,36.24-15.82,9.28-10.85,13.93-22.8,13.93-35.82v-9.77c0-13.96-4.65-26.06-13.93-36.29-9.29-10.23-21.84-15.36-37.64-15.36-14.85,0-26.77,5.13-35.76,15.36-8.98,10.23-13.46,23.88-13.46,40.94s4.48,31.17,13.46,41.4c9.3,10.24,21.67,15.36,37.16,15.36h0Z"/>
    <path class="cls-2" d="M756.36,217.5c26.27,0,46.38,8.05,60.3,24.15,14.23,16.11,21.34,37.15,21.34,63.17v134.68h-63.55v-123.54c0-13.31-3.41-23.84-10.21-31.58-6.49-8.05-15.93-12.08-28.29-12.08-15.17,0-26.76,5.42-34.81,16.26-7.72,10.84-11.59,23.38-11.59,37.62v113.33h-63.55v-219.21l49.64-1.86c5.25,16.41,7.88,31.74,7.88,45.98h1.86c12.67-31.27,36.33-46.91,70.98-46.91Z"/>
    <path class="cls-2" d="M582,149.99c0,11.46-4.01,20.91-12.05,28.34-8.03,7.44-17.76,11.15-29.18,11.15s-21.17-3.71-29.19-11.15c-7.72-7.43-11.58-16.88-11.58-28.34s3.86-20.45,11.58-27.88c8.02-7.74,17.76-11.61,29.19-11.61s21.15,3.87,29.18,11.61c8.04,7.43,12.05,16.73,12.05,27.88ZM508.79,439.5v-219.34l63.48-1.85v221.19h-63.48Z"/>
    <path class="cls-2" d="M352.73,217.5c34.39,0,62.13,10.54,83.19,31.61,21.39,20.76,32.08,47.73,32.08,80.89s-10.69,60.29-32.08,81.36c-21.06,20.76-48.8,31.15-83.19,31.15s-62.75-10.38-84.13-31.15c-21.06-21.07-31.6-48.19-31.6-81.36s10.54-60.13,31.6-80.89c21.38-21.07,49.43-31.61,84.13-31.61ZM315.55,373.7c9.3,11.15,21.68,16.74,37.18,16.74s27.73-5.58,36.72-16.74c9.31-11.15,13.96-25.73,13.96-43.7s-4.65-32.55-13.96-43.7c-8.99-11.15-21.22-16.73-36.72-16.73s-27.88,5.58-37.18,16.73c-9.3,11.15-13.95,25.73-13.95,43.7s4.65,32.55,13.95,43.7Z"/>
    <path class="cls-2" d="M113.66,217.5c28.13,0,50.41,7.43,66.8,22.32,16.7,14.56,25.06,32.85,25.06,54.85l-1.41,16.28-56.13,3.25c.62-1.23.93-4.49.93-9.76,0-9.92-3.25-18.12-9.75-24.63-6.18-6.82-14.99-10.22-26.44-10.22-14.53,0-26.29,5.42-35.25,16.27-8.67,10.85-12.99,25.1-12.99,42.77,0,19.22,4.79,34.39,14.38,45.56,9.89,10.84,23.96,16.27,42.22,16.27,25.98,0,45.93-8.51,59.85-25.57l31.07,39.98c-8.04,10.22-20.26,19.06-36.65,26.49s-35.87,11.16-58.44,11.16c-36.19,0-64.79-10.23-85.83-30.68C10.36,391.06,0,364.1,0,330.94s10.51-61.04,31.54-81.81c21.03-21.07,48.4-31.6,82.11-31.6v-.03Z"/>
    <path class="cls-2" d="M1801.76,342.08c13.24,23.12,26.44,41.93,40.2,61.53,5.98,8.51,12.05,17.15,18.27,26.36,7.91,11.71-2.34,25.73-15.41,20.33-50.96-21.05-88.18-60.65-113.69-97.94h-27.32v87.42h-63.81V111.5h63.81v191.12h27.02c17.38,0,31.04-5.28,40.98-15.81,9.93-10.54,14.9-25.58,14.9-45.1,0-4.95-.62-12.09-1.86-21.38h61.02c1.54,7.13,2.33,14.72,2.33,22.79,0,43.18-19.31,80.16-46.44,98.98h0Z"/>
  </g>
  <rect class="cls-1" width="1863" height="660"/>
</svg>