<svg width="2114" height="2099" xmlns="http://www.w3.org/2000/svg" xmlns:xlink="http://www.w3.org/1999/xlink" xml:space="preserve" overflow="hidden"><defs><clipPath id="clip0"><rect x="1175" y="111" width="2114" height="2099"/></clipPath></defs><g clip-path="url(#clip0)" transform="translate(-1175 -111)"><path d="M2172.85 111.772C2607.01 93.6428 3083.99 396.881 3231.14 809.039 3418.25 1333.09 3132.94 1892.77 2643.01 2117.01 2197.52 2320.9 1745.78 2174.01 1427.87 1827.33 846.555 1193.37 1339.94 146.58 2172.85 111.772ZM1519.53 481.918C1341.53 671.306 1224.02 936.038 1233.4 1200 1256.91 1861.03 1903.28 2235.04 2501.22 1967.92 3050.59 1722.5 3295.69 1032.15 2922.01 528.498 2571.9 56.5629 1910.84 65.5066 1519.53 481.918ZM3110.93 669.421C3080.63 623.856 3054.43 568.696 2997.36 553.443 3005.84 566.4 3014.3 579.38 3021.93 592.892 3027.42 602.561 3044.45 640.439 3049.36 645.225 3052.31 648.101 3108.34 671.5 3110.93 669.421ZM3195.48 867.632C3199.97 862.773 3156.36 760.719 3148.21 749.358 3134.03 729.537 3100.39 717.475 3079.51 705.703 3093.26 744.741 3107.91 783.537 3116.99 824.098L3195.48 867.632ZM3234.14 1077.93C3230.93 1057.7 3231.51 1036.91 3229.02 1016.6 3227.01 1000.19 3221.31 956.536 3215.37 943.242 3211.02 933.5 3140.65 890.861 3137.48 894.269 3145.8 940.704 3150.65 987.525 3155.56 1034.49 3178.39 1045.51 3203.02 1065.65 3225.54 1075.68 3228.41 1076.96 3230.32 1078.92 3234.09 1077.98ZM3224.48 1278.58 3233.66 1142.52 3225.3 1133.96 3154.42 1094.9C3155.78 1141.02 3148.58 1186.82 3142.61 1232.39L3224.48 1278.58ZM3178.56 1464.71 3212.15 1333.38 3139.88 1287.09 3132.72 1285.83 3096.26 1412.4 3178.59 1464.71ZM3074.71 1459.87 3014.63 1581.58 3095.22 1638.48C3100.39 1638.45 3139.66 1558.49 3144.4 1547.74 3148.24 1539.03 3160.56 1516.58 3154.4 1509.42L3074.71 1459.85ZM2986.58 1624.24 2900.75 1734.22 2984.16 1791.12C2996.9 1779.55 3009.05 1763.91 3020.12 1749.72 3026.09 1742.06 3067.99 1685.42 3067.26 1681.33L2986.58 1624.24ZM2776.45 1857.69C2772.68 1860.93 2758.54 1867.56 2762.92 1872.05L2834.61 1923.64 2843.43 1926.1C2857.25 1916.07 2946.71 1839.98 2946.03 1830.91L2868.1 1774.06C2863.2 1774.03 2823.93 1816.67 2816.17 1823.73 2803.42 1835.36 2789.54 1846.53 2776.45 1857.72ZM2608.34 1979.52 2686.41 2029.85C2713.67 2013.65 2742.09 1999.05 2768.55 1981.53 2773.6 1978.19 2797.88 1963.64 2796.77 1959.05L2718.67 1905 2609.76 1974.57C2607.35 1974.3 2607.98 1979.11 2608.29 1979.52ZM2632.48 2061.73C2634.75 2058.73 2630.21 2056.36 2628.47 2054.89 2621.07 2048.56 2563.03 2006.33 2558.78 2006.33 2534.37 2017.47 2509.85 2028.49 2485.03 2038.77 2480.17 2040.77 2454.8 2048.51 2453.66 2049.72 2450.04 2053.46 2455.5 2054.16 2456.73 2055.23 2475.17 2071.08 2498.56 2082.59 2516.54 2099.2L2522.51 2100.67C2536.47 2097.58 2628.37 2067.17 2632.48 2061.73ZM1871.31 2078.7C1851.28 2074.71 1833.9 2060.55 1813.31 2059.36 1816.17 2063.42 1824.62 2066.49 1829.33 2068.67 1837.48 2072.44 1860.31 2083.2 1867.63 2083.58 1872.44 2083.82 1871.5 2082.98 1871.31 2078.7ZM2456.06 2119.82 2386.63 2071.79C2356.38 2076.62 2327.45 2089.48 2296.6 2090.79 2307.37 2100.12 2347.24 2137.29 2358.38 2138.98 2366.55 2140.24 2378.17 2137.37 2386.83 2136.28 2408.31 2133.57 2431.38 2129.44 2452.48 2124.55 2455.48 2123.85 2459.73 2124.05 2456.08 2119.79ZM2091.2 2141.5C2085.38 2135.72 2060.85 2109.81 2055.66 2108.19 2038.6 2102.87 1999.79 2102.8 1979.2 2100.07 1972.94 2099.25 1942.88 2091.92 1941.43 2093.18 1937.18 2096.83 1944.86 2098.52 1945.95 2099.46 1960.01 2111.86 1970.41 2114.93 1987.9 2120.4 2021.17 2130.79 2056.77 2136.59 2091.23 2141.5ZM2286.91 2148.8C2268.78 2143.09 2240.46 2107 2224.81 2103.35 2211.9 2100.33 2182.35 2106.98 2167.42 2107.78 2150.98 2108.67 2134.21 2106.91 2117.78 2107.71 2130.9 2115.05 2161.18 2150.51 2172.66 2153.1 2197.91 2158.81 2239.38 2149.84 2266.49 2153.71L2286.91 2148.8Z" fill="#030303" fill-rule="evenodd"/><path d="M1519.62 482C1910.88 65.5781 2571.86 56.6342 2921.93 528.556 3295.56 1032.24 3050.5 1722.59 2501.19 1968.01 1903.32 2235.14 1257.03 1861.12 1233.52 1200.07 1224.15 936.107 1341.64 671.368 1519.62 481.976ZM2163.2 271.384C1791.74 290.915 1449.48 604.845 1359.84 959.095 1244.01 1416.85 1528.63 1870.5 1998.54 1938.26 2596.29 2024.43 3122.28 1426.33 2965.16 843.067 2868.95 485.916 2531.3 252.046 2163.2 271.408Z" fill="#FEFEFE" fill-rule="evenodd"/><path d="M2987.08 1624 3067.99 1681.13C3068.72 1685.22 3026.7 1741.92 3020.71 1749.56 3009.61 1763.76 2997.4 1779.41 2984.65 1791L2901 1734.06 2987.08 1624Z" fill="#FEFEFE" fill-rule="evenodd"/><path d="M2776.37 1857.64C2789.47 1846.45 2803.34 1835.26 2816.1 1823.66 2823.86 1816.6 2863.12 1773.98 2868.05 1774L2946 1830.84C2946.67 1839.9 2857.22 1915.97 2843.37 1926L2834.55 1923.54 2762.83 1871.97C2758.46 1867.47 2772.57 1860.85 2776.37 1857.61Z" fill="#FEFEFE" fill-rule="evenodd"/><path d="M3074.88 1460 3154.31 1509.4C3160.45 1516.53 3148.19 1538.88 3144.34 1547.58 3139.59 1558.27 3100.48 1637.98 3095.32 1638L3015 1581.3 3074.88 1460.02Z" fill="#FEFEFE" fill-rule="evenodd"/><path d="M3178.69 1465 3097 1412.65 3133.18 1286 3140.28 1287.26 3212 1333.58 3178.69 1465Z" fill="#FEFEFE" fill-rule="evenodd"/><path d="M2608.32 1979.61C2607.99 1979.2 2607.38 1974.41 2609.8 1974.65L2718.8 1905 2796.96 1959.11C2798.05 1963.74 2773.77 1978.28 2768.72 1981.62 2742.23 1999.14 2713.79 2013.79 2686.51 2030L2608.37 1979.61Z" fill="#FEFEFE" fill-rule="evenodd"/><path d="M3224.82 1279 3143 1232.73C3148.97 1187.11 3156.16 1141.2 3154.81 1095L3225.64 1134.13 3234 1142.7 3224.82 1279Z" fill="#FEFEFE" fill-rule="evenodd"/><path d="M3233.95 1077.74C3230.21 1078.71 3228.31 1076.73 3225.46 1075.45 3203.09 1065.43 3178.63 1045.33 3155.95 1034.3 3151.06 987.393 3146.26 940.612 3138 894.193 3141.12 890.788 3211.03 933.391 3215.35 943.124 3221.26 956.432 3226.92 1000.05 3228.91 1016.42 3231.36 1036.73 3230.81 1057.48 3234 1077.69Z" fill="#FEFEFE" fill-rule="evenodd"/><path d="M2632.39 2061.79C2628.3 2067.26 2536.73 2097.86 2522.82 2101L2516.87 2099.52C2498.95 2082.79 2475.65 2071.18 2457.28 2055.24 2456.05 2054.17 2450.61 2053.46 2454.22 2049.69 2455.38 2048.5 2480.63 2040.68 2485.47 2038.66 2510.2 2028.32 2534.61 2017.25 2558.96 2006 2563.19 2006 2621.03 2048.5 2628.39 2054.9 2630.1 2056.38 2634.63 2058.77 2632.39 2061.79Z" fill="#FEFEFE" fill-rule="evenodd"/><path d="M3195.68 868 3117.39 824.447C3108.32 783.869 3093.72 745.055 3080 706 3100.8 717.801 3134.36 729.844 3148.53 749.674 3156.65 761.04 3200.16 863.164 3195.68 868Z" fill="#FEFEFE" fill-rule="evenodd"/><path d="M2456.58 2119.65C2460.26 2123.87 2455.98 2123.68 2452.98 2124.38 2431.87 2129.22 2408.78 2133.32 2387.28 2136.01 2378.63 2137.09 2367 2139.92 2358.83 2138.7 2347.68 2137 2307.78 2100.12 2297 2090.86 2327.88 2089.59 2356.84 2076.8 2387.09 2072L2456.56 2119.67Z" fill="#FEFEFE" fill-rule="evenodd"/><path d="M2287 2148.8 2266.6 2153.66C2239.5 2149.83 2198.07 2158.71 2172.84 2153.06 2161.37 2150.5 2131.11 2115.39 2118 2108.09 2134.42 2107.3 2151.18 2109.04 2167.6 2108.16 2182.52 2107.37 2212.05 2100.78 2224.94 2103.78 2240.59 2107.39 2268.89 2143.15 2287 2148.8Z" fill="#FEFEFE" fill-rule="evenodd"/><path d="M3111 669.87C3108.43 671.947 3052.7 648.546 3049.74 645.696 3044.86 640.939 3027.88 603.096 3022.45 593.412 3014.85 579.913 3006.44 566.944 2998 554 3054.79 569.239 3080.85 624.348 3111 669.87Z" fill="#FEFEFE" fill-rule="evenodd"/><path d="M2091 2141C2056.56 2136.14 2020.95 2130.42 1987.72 2120.1 1970.23 2114.69 1959.84 2111.65 1945.79 2099.37 1944.72 2098.43 1937.02 2096.76 1941.27 2093.14 1942.72 2091.9 1972.77 2099.15 1979.02 2099.97 1999.6 2102.67 2038.39 2102.72 2055.45 2108.01 2060.64 2109.61 2085.15 2135.28 2090.98 2141Z" fill="#FEFEFE" fill-rule="evenodd"/><path d="M1871.78 2078.92C1872 2083.36 1872.94 2084.23 1868.06 2083.95 1860.66 2083.56 1837.52 2072.47 1829.24 2068.59 1824.46 2066.35 1815.87 2063.16 1813 2059 1833.84 2060.22 1851.48 2074.81 1871.78 2078.92Z" fill="#FEFEFE" fill-rule="evenodd"/><path d="M2163.55 271.117C2531.82 251.759 2869.62 485.588 2965.87 842.678 3123.06 1425.84 2596.84 2023.84 1998.82 1937.68 1528.7 1869.96 1243.95 1416.36 1359.83 958.686 1449.51 604.546 1791.93 290.67 2163.55 271.117ZM2161.14 331.538C1871.29 348.867 1611.32 552.173 1479.56 802.896 1282.41 1178.04 1424.35 1654.91 1819.17 1824.86 2327.34 2043.59 2895.97 1647.51 2932.83 1112.78 2963.53 667.577 2607.4 304.857 2161.14 331.538Z" fill="#030303" fill-rule="evenodd"/><path d="M2160.62 331.385C2606.8 304.687 2962.82 667.622 2932.16 1113.09 2895.3 1648.14 2326.8 2044.47 1818.73 1825.59 1423.99 1655.54 1282.1 1178.41 1479.18 803.021 1610.92 552.149 1870.84 348.724 2160.62 331.385ZM2196.73 495.707C2178.94 499.044 2125.94 558.848 2109.22 575.002 2020.43 660.802 1931.2 746.724 1844.47 834.846 1832.26 847.083 1831.15 864.953 1842.12 878.423 1872.6 907.564 1899.59 940.331 1929.05 970.391 1938.33 979.87 1974.83 1019.14 1983.31 1022.5 1992.56 1026.16 2006.99 1026.81 2014.9 1019.92L2201.47 836.394 2208.33 838.401 2380.91 1013.97C2399.76 1026.71 2412.01 1018.93 2426.94 1006.64 2460.54 979.024 2524.46 914.48 2552.64 880.914 2571.83 858.061 2571.85 850.468 2552.64 827.591L2231.19 505.984C2219.25 496.577 2212.82 492.684 2196.68 495.707ZM1644.97 1025.75C1629.04 1043.04 1597.22 1066.66 1609.61 1091.76 1647.51 1131.04 1682.79 1173.53 1721.22 1212.22 1735.6 1226.68 1748.55 1241.7 1769.72 1226.75 1808.39 1181.65 1862.96 1141.31 1900.17 1096.12 1915.09 1078 1912.86 1068.98 1898.94 1051.28 1872.58 1017.79 1816.15 961.129 1784.22 931.505 1768.99 917.382 1752.75 916.342 1737.07 930.44 1707.88 963.62 1674.84 993.292 1644.97 1025.7ZM2638.79 921.59C2630.79 921.832 2619.94 927.128 2614.19 932.786 2579.03 975.759 2521.46 1015.64 2488.52 1058.54 2477.67 1072.68 2476.58 1083.76 2487.39 1098.49 2502.25 1118.73 2531.76 1147.22 2550.15 1166.27 2564.43 1181.07 2599.84 1220.95 2614.24 1230.31 2630.75 1241.04 2642.47 1233.86 2655.4 1223.1 2698.9 1186.9 2737.73 1134.91 2781.06 1097.35 2792.4 1084.29 2787.52 1071.23 2778.38 1058.83 2757.38 1030.24 2719.27 995.879 2693.97 969.182 2680.8 955.276 2658.44 921.034 2638.79 921.614ZM2306.98 1031.14C2282.5 1005.55 2244.75 959.823 2217.9 940.114 2203.01 929.183 2189.99 930.151 2175.56 941.25 2152.74 958.807 2078.12 1033.34 2060.76 1056.12 2048.68 1071.98 2047.71 1081.99 2059.63 1098.49 2088.51 1138.49 2142.91 1176.19 2173.43 1216.76 2187.38 1228.88 2204.87 1229.63 2217.97 1215.85L2342.96 1089.42C2353.33 1065.43 2320.56 1045.33 2306.98 1031.14ZM2298.04 1229.44C2264.78 1261.84 2230.59 1293.35 2198.69 1327.16L2191.82 1329.17 2004.19 1137.03C1987.85 1125.77 1974.15 1133.58 1960.52 1144.41 1913.51 1181.7 1870.81 1241.65 1823.95 1281.02 1803.46 1306.8 1838.4 1334.78 1855.39 1353.64 1933.62 1440.6 2020.72 1530.29 2103.08 1613.63 2116.45 1627.15 2158.16 1673.09 2173.04 1676.6 2187.93 1680.11 2194.79 1674.88 2205.91 1665.62 2316.81 1547.63 2443.69 1442.75 2553.85 1324.57 2577.31 1299.4 2565.52 1288.3 2546.64 1266.51 2509.55 1223.71 2462.95 1188.52 2427.04 1144.36 2414.33 1132.78 2398.38 1133.6 2384.68 1143.2 2360.85 1159.89 2321.5 1206.61 2298.06 1229.44Z" fill="#FEFEFE" fill-rule="evenodd"/><path d="M2298.24 1229.69C2321.68 1206.91 2361.04 1160.29 2384.83 1143.65 2398.53 1134.07 2414.48 1133.27 2427.19 1144.8 2463.09 1188.86 2509.68 1223.97 2546.76 1266.68 2565.63 1288.39 2577.42 1299.47 2553.96 1324.61 2443.84 1442.53 2316.99 1547.18 2206.11 1664.9 2195 1674.14 2188.67 1679.48 2173.26 1675.86 2157.84 1672.24 2116.65 1626.51 2103.31 1613.03 2020.97 1529.88 1933.89 1440.36 1855.68 1353.62 1838.72 1334.79 1803.78 1306.88 1824.25 1281.16 1871.09 1241.87 1913.79 1182.03 1960.78 1144.85 1974.41 1134.07 1988.11 1126.25 2004.44 1137.49L2192.03 1329.2 2198.89 1327.19C2230.78 1293.46 2264.97 1262.02 2298.22 1229.69ZM2445.07 1246.41C2435.14 1236.2 2420.04 1216.18 2409.09 1208.67 2406.97 1207.2 2405.81 1205.22 2403 1207.47L2216.99 1391.04C2203.79 1403.18 2184.39 1401.92 2170.96 1391.04L1988.13 1204.23 1981.27 1206.24 1886.12 1303.76 2181.59 1606.73 2493.73 1302.8C2495.03 1301.13 2494.38 1299.74 2493.9 1297.97 2492.47 1292.74 2452.58 1254.06 2445.07 1246.36Z" fill="#030303" fill-rule="evenodd"/><path d="M2196.89 496.008C2213.02 492.988 2219.44 496.853 2231.37 506.276L2552.61 827.574C2571.81 850.428 2571.79 858.039 2552.61 880.845 2524.45 914.379 2460.57 978.836 2427 1006.45 2412.05 1018.72 2399.83 1026.5 2380.99 1013.77L2208.53 838.373 2201.67 836.368 2015.22 1019.71C2007.3 1026.6 1992.9 1025.97 1983.65 1022.3 1975.18 1018.94 1938.71 979.706 1929.43 970.235 1899.99 940.205 1873.02 907.469 1842.56 878.357 1831.6 864.9 1832.71 847.046 1844.9 834.821 1931.58 746.784 2020.75 660.945 2109.48 575.227 2126.17 559.113 2179.16 499.342 2196.93 496.008ZM2402.75 949.579 2494.43 854.511 2205.51 563.316 1903.06 859.343 1997.95 954.266 2184.25 770.823C2194.66 763.068 2214.01 763.164 2222.94 773.19 2272.89 823.877 2323.85 873.573 2373.89 924.187 2377.68 928.005 2396.62 953.759 2402.73 949.579Z" fill="#030303" fill-rule="evenodd"/><path d="M2639.06 922.024C2658.72 921.444 2681.09 955.684 2694.27 969.589 2719.58 996.285 2757.69 1030.67 2778.72 1059.23 2787.86 1071.63 2792.75 1084.72 2781.41 1097.75 2738.05 1135.33 2699.22 1187.29 2655.67 1223.49 2642.74 1234.25 2631.01 1241.43 2614.5 1230.7 2600.09 1221.34 2564.66 1181.46 2550.37 1166.67 2531.97 1147.61 2502.45 1119.13 2487.58 1098.89 2476.77 1084.18 2477.86 1073.08 2488.71 1058.94 2521.67 1016.04 2579.24 976.166 2614.45 933.196 2620.2 927.538 2631.06 922.242 2639.06 922ZM2609.3 1021.17C2602.29 1031.03 2550.35 1074.85 2550.35 1081.98L2631.45 1165.5 2717.38 1079.56 2638.63 993.721 2609.3 1021.17Z" fill="#030303" fill-rule="evenodd"/><path d="M1645.21 1026.14C1675.09 993.763 1708.2 964.168 1737.43 931.048 1753.16 916.974 1769.4 918.012 1784.64 932.11 1816.61 961.681 1873.12 1018.24 1899.52 1051.68 1913.46 1069.32 1915.68 1078.35 1900.75 1096.43 1863.49 1141.55 1808.82 1181.81 1770.13 1226.83 1748.93 1241.73 1735.96 1226.76 1721.56 1212.33 1683.06 1173.7 1647.75 1131.29 1609.81 1092.09 1597.39 1067.03 1629.26 1043.44 1645.21 1026.18ZM1759.62 994.005C1749.51 996.636 1690.2 1067.03 1675.82 1077.36L1754.3 1157.99 1840.11 1076.78C1840.5 1074.85 1831.49 1063.84 1829.34 1061.31 1813.2 1042.31 1792.46 1022.83 1774.92 1004.55 1771.12 1000.62 1765.09 992.58 1759.62 994.005Z" fill="#030303" fill-rule="evenodd"/><path d="M2306.99 1031.54C2320.58 1045.7 2353.38 1065.73 2343 1089.69L2217.92 1215.85C2204.83 1229.61 2187.3 1228.86 2173.34 1216.77 2142.8 1176.27 2088.36 1138.65 2059.46 1098.74 2047.53 1082.28 2048.5 1072.29 2060.59 1056.46 2077.96 1033.73 2152.64 959.358 2175.47 941.839 2189.91 930.763 2202.95 929.773 2217.85 940.705 2244.69 960.372 2282.49 1006.03 2306.99 1031.54ZM2203.84 1006.61 2198.13 1003.86C2188.44 1010.9 2122.24 1074.08 2122.24 1079.44L2196.1 1155.55 2272.38 1079.44 2203.87 1006.61Z" fill="#030303" fill-rule="evenodd"/><path d="M2445.52 1246.18C2453.04 1253.91 2492.98 1292.64 2494.4 1297.86 2494.89 1299.62 2495.54 1301.02 2494.23 1302.69L2181.77 1607 1886 1303.66 1981.24 1206.01 1988.11 1204 2171.13 1391.04C2184.58 1401.94 2204 1403.19 2217.21 1391.04L2403.41 1207.24C2406.24 1204.99 2407.38 1206.97 2409.51 1208.45 2420.47 1215.96 2435.58 1236.01 2445.52 1246.23Z" fill="#FEFEFE" fill-rule="evenodd"/><path d="M2403.2 950.301C2397.08 954.491 2378.1 928.668 2374.33 924.841 2324.24 874.115 2273.22 824.285 2223.23 773.438 2214.26 763.385 2194.89 763.288 2184.49 771.064L1997.99 955 1903 859.822 2205.77 563 2495 854.977 2403.22 950.301Z" fill="#FEFEFE" fill-rule="evenodd"/><path d="M2608.94 1020.48 2638.26 993 2717 1078.95 2631.08 1165 2550 1081.37C2550 1074.21 2601.93 1030.36 2608.94 1020.48Z" fill="#FEFEFE" fill-rule="evenodd"/><path d="M1759.65 993.169C1765.11 991.737 1771.15 999.793 1774.91 1003.77 1792.43 1022.14 1813.13 1041.75 1829.24 1060.82 1831.39 1063.34 1840.37 1074.43 1839.99 1076.37L1754.33 1158 1676 1076.96C1690.32 1066.57 1749.53 995.813 1759.65 993.169Z" fill="#FEFEFE" fill-rule="evenodd"/><path d="M2204.55 1005.76 2273 1078.73 2196.79 1155 2123 1078.73C2123 1073.34 2189.13 1010.06 2198.82 1003L2204.52 1005.76Z" fill="#FEFEFE" fill-rule="evenodd"/></g></svg>