<svg width="1426" height="1623" xmlns="http://www.w3.org/2000/svg" xmlns:xlink="http://www.w3.org/1999/xlink" xml:space="preserve" overflow="hidden"><defs><clipPath id="clip0"><rect x="1336" y="299" width="1426" height="1623"/></clipPath></defs><g clip-path="url(#clip0)" transform="translate(-1336 -299)"><path d="M753.87 0.298458C1080.71-10.358 1280.29 266.189 1359.66 552.43 1437.42 832.792 1391.77 1231.99 1176.13 1443.5 1019.83 1596.81 859.848 1615.58 647.995 1608.53 46.226 1588.53-111.315 875.658 72.1103 403.414 147.529 209.161 309.195 34.261 526.41 12.0888 597.807 4.80131 681.51 2.67024 753.87 0.298458ZM578.97 69.8388C517.645 70.836 454.945 79.292 399.085 105.486 394.17 107.789 386.47 111.192 383.032 115.18L474.813 111.089C487.154 111.261 493.754 121.848 503.31 127.28L578.935 69.8388ZM774.495 72.486C599.491 82.8327 455.804 228.583 377.841 375.02 217.001 677.142 224.529 1101.09 455.288 1366.05 687.595 1632.8 1041.18 1590.62 1221.3 1292.73 1335.94 1103.08 1362.96 847.573 1318.79 632.489 1266.13 376.051 1074 54.7827 774.495 72.486ZM463.47 166.742C419.848 165.848 376.054 167.876 332.432 166.811 324.904 166.639 318.27 163.201 309.916 164.783 304.313 165.814 275.473 190.942 269.56 196.614 267.91 198.195 259.041 205.998 261.345 207.992L377.395 206.411C395.957 211.189 401.113 234.048 389.22 248.245L392.279 249.242 463.435 166.776ZM164.407 337.93 274.751 337.93C277.776 337.93 287.779 344.22 290.323 347.108 305.551 364.158 292.351 387.533 270.695 389.595 252.441 391.314 141.376 385.47 137.388 390.798 99.026 478.661 71.0103 571.542 59.5288 667.208 50.076 745.892 48.6321 837.502 57.4321 916.22 61.0413 948.533 69.2228 980.158 73.7603 1012.26 77.1978 1015.6 155.332 1010.61 169.391 1012.57 194.657 1016.11 190.979 1055.4 172.795 1060.97 168.154 1062.38 152.823 1063.69 146.979 1064.03 127.076 1065.24 106.073 1062.97 86.0663 1063.96 91.5321 1083.59 97.376 1103.7 104.595 1122.78 106.588 1128.07 108.376 1137.22 113.876 1138.25 145.088 1140.41 180.22 1135.26 210.916 1138.15 232.985 1140.21 244.054 1160.28 231.37 1179.36 229.788 1181.73 221.126 1189.78 219.098 1189.78L129.379 1189.78C133.676 1199.5 156.81 1249.11 163.788 1251.27 197.407 1253.85 233.26 1249.21 266.604 1251.58 286.61 1252.99 300.876 1257.53 298.366 1281.35 297.679 1287.75 289.738 1303.25 283.035 1303.25L193.316 1303.25C192.663 1306.34 194.451 1307.75 195.757 1310.09 199.951 1317.48 228.276 1356.87 233.948 1358.52 282.898 1360.79 332.398 1355.64 380.935 1362.06 213.288 1138.39 177.126 840.664 242.954 572.264 264.713 483.508 299.191 396.951 346.32 318.817 358.11 299.258 376.879 277.086 386.745 258.18 387.948 255.876 390.01 254.57 389.22 251.408L365.604 257.664 215.385 257.561 193.695 287.88 164.441 338.033ZM375.813 1410.43 279.907 1410.43C284.341 1415.55 319.37 1447.55 322.188 1447.55L455.22 1447.55 394.341 1377.36C385.61 1376.33 391.729 1379.6 391.42 1386.64 391.11 1394.07 382.895 1408.68 375.813 1410.46ZM593.407 1544.53C552.363 1526.31 514.001 1498.57 481.001 1468.21 476.429 1467.56 478.56 1468.83 477.976 1471.31 476.601 1477.25 476.841 1483.34 472.716 1488.77 461.166 1504 415.276 1495.2 397.47 1495.03 402.695 1501.04 412.801 1505.06 420.191 1508.36 466.632 1529.23 526.96 1543.6 577.87 1546.62 581.17 1546.83 591.998 1548.17 593.407 1544.49Z" fill="#030303" fill-rule="evenodd" transform="matrix(-0.972857 -0.231407 -0.231407 0.972857 2915.75 492.636)"/><path d="M506.517 0.700853C806.027-17.0024 998.149 304.267 1050.81 560.704 1094.98 775.788 1067.96 1031.26 953.324 1220.94 773.233 1518.84 419.617 1561.02 187.311 1294.27-43.4486 1029.3-50.9764 605.357 109.864 303.235 187.826 156.798 331.514 11.0476 506.517 0.700853ZM558.08 85.2634C470.149 89.3194 386.617 131.635 322.301 189.798 32.6236 451.769 10.1422 1022.29 302.742 1290.21 474.308 1447.34 703.452 1427.13 851.333 1250.95 1022.04 1047.59 1049.13 726.632 968.38 480.198 912.555 309.869 762.405 75.8444 558.114 85.2634Z" fill="#FCFCFC" fill-rule="evenodd" transform="matrix(-0.972857 -0.231407 -0.231407 0.972857 2638.43 500.461)"/><path d="M202.479 2.39596 131.323 84.8613 128.264 83.8645C140.157 69.6677 134.967 46.8085 116.439 42.0303L0.388681 43.6113C-1.94882 41.652 6.9544 33.8145 8.6044 32.2335 14.5169 26.5613 43.3573 1.43346 48.9605 0.402034 57.2794-1.14475 63.948 2.25846 71.4762 2.43025 115.098 3.49596 158.892 1.46775 202.514 2.36132Z" fill="#FCFCFC" fill-rule="evenodd" transform="matrix(-0.972857 -0.231407 -0.231407 0.972857 2623.81 592.127)"/><path d="M95.9061 33.279C102.953 31.4911 111.203 16.8818 111.512 9.45682 111.787 2.44432 105.669-0.82103 114.434 0.175755L175.312 70.3693 42.2814 70.3693C39.4625 70.3693 4.43428 38.3661 0 33.2443L95.9061 33.2443Z" fill="#FCFCFC" fill-rule="evenodd" transform="matrix(-0.972857 -0.231407 -0.231407 0.972857 2324.75 1767.63)"/><path d="M195.938 76.4482C194.528 80.1261 183.7 78.7857 180.4 78.5793 129.525 75.52 69.1968 61.1511 22.7218 40.32 15.3314 37.02 5.225 32.9982 0 26.9825 17.8064 27.1543 63.6968 35.9543 75.2468 20.726 79.3718 15.295 79.1314 9.2107 80.5061 3.26391 81.0907 0.78855 78.9593-0.483235 83.5314 0.16998 116.531 30.5232 154.928 58.2639 195.938 76.4825Z" fill="#FCFCFC" fill-rule="evenodd" transform="matrix(-0.972857 -0.231407 -0.231407 0.972857 2189.34 1828.89)"/><path d="M195.903 0 120.278 57.4407C110.688 52.0093 104.088 41.3875 91.7814 41.25L0 45.3407C3.4375 41.3532 11.1718 37.95 16.0532 35.6468 71.9125 9.45322 134.613 0.996785 195.938 0Z" fill="#FCFCFC" fill-rule="evenodd" transform="matrix(-0.972857 -0.231407 -0.231407 0.972857 2526.92 471.935)"/><path d="M112.87 86.625 142.123 36.4718 163.814 6.15322 314.033 6.25607 337.648 0C338.439 3.1625 336.376 4.46893 335.173 6.77178 325.342 25.6782 306.539 47.85 294.748 67.4093 247.62 145.544 213.142 232.1 191.383 320.856 125.554 589.256 161.717 886.978 329.364 1110.66 280.826 1104.23 231.326 1109.38 182.376 1107.12 176.739 1105.47 148.414 1066.07 144.186 1058.68 142.879 1056.38 141.058 1054.97 141.745 1051.84L231.464 1051.84C238.167 1051.84 246.108 1036.34 246.795 1029.94 249.339 1006.12 235.039 1001.62 215.032 1000.17 181.689 997.803 145.836 1002.44 112.217 999.866 105.204 997.734 82.1045 948.131 77.8073 938.369L167.526 938.369C169.554 938.369 178.217 930.325 179.798 927.953 192.483 908.875 181.414 888.8 159.345 886.737 128.614 883.85 93.517 889.041 62.3045 886.841 56.8045 885.809 55.017 876.666 53.023 871.372 45.8045 852.328 39.9605 832.184 34.4948 812.556 54.5012 811.559 75.5045 813.828 95.4077 812.625 101.251 812.281 116.583 810.975 121.223 809.566 139.408 803.997 143.086 764.706 117.82 761.166 103.761 759.206 25.6262 764.191 22.1887 760.856 17.6512 728.75 9.47018 697.091 5.86053 664.812-2.93947 586.094-1.49554 494.484 7.95732 415.8 19.473 320.134 47.4545 227.253 85.817 139.391 89.8387 134.062 200.87 139.906 219.123 138.188 240.779 136.159 253.979 112.75 238.751 95.7 236.208 92.8468 226.204 86.5218 223.179 86.5218L112.836 86.5218Z" fill="#FCFCFC" fill-rule="evenodd" transform="matrix(-0.972857 -0.231407 -0.231407 0.972857 2807.45 725.194)"/><path d="M464.231 0.275722C668.556-9.14321 818.671 224.882 874.496 395.21 955.278 641.61 928.19 962.569 757.45 1165.97 609.568 1342.17 380.425 1362.35 208.859 1205.22-83.7411 937.269-61.26 366.782 228.418 104.81 292.734 46.6475 376.265 4.33179 464.196 0.275722ZM590.456 1224.75C621.256 1213.99 652.709 1191.75 677.115 1170.13 889.037 982.301 907.6 597.266 798.115 351.932 746.896 237.119 657.659 108.935 532.706 69.7818L575.021 104.776C789.006 320.169 846.996 673.957 754.321 958.616 721.768 1058.65 676.634 1142.52 600.631 1215.43 598.431 1217.53 597.64 1220.86 596.025 1222.2 594.306 1223.65 589.734 1221 590.456 1224.75ZM394.106 78.6507C299.231 85.835 212.881 182.463 164.721 257.641 11.4432 496.719 3.26211 869.997 177.096 1100.86 305.556 1271.5 481.006 1312.47 618.953 1124.37 757.209 935.826 778.728 647.694 708.568 429.138 669.071 306.11 548.965 66.9286 394.106 78.6507Z" fill="#030303" fill-rule="evenodd" transform="matrix(-0.972857 -0.231407 -0.231407 0.972857 2527.46 561.424)"/><path d="M345.869 0.415387C500.728-11.3064 620.835 227.875 660.332 350.903 730.491 569.425 709.007 857.59 570.716 1046.14 432.769 1234.24 257.353 1193.23 128.86 1022.62-44.9748 791.763-36.7933 418.484 116.485 179.406 164.644 104.263 251.028 7.60003 345.869 0.415387Z" fill="#FEFEFE" fill-rule="evenodd" transform="matrix(-0.972857 -0.231407 -0.231407 0.972857 2462.43 626.374)"/><path d="M57.75 1154.97C57.0625 1151.22 61.6343 1153.87 63.3189 1152.42 64.9343 1151.08 65.725 1147.75 67.925 1145.65 143.928 1072.78 189.062 988.9 221.616 888.834 314.291 604.175 256.3 250.387 42.3157 34.9939L0 0C124.953 39.1532 214.156 167.337 265.409 282.15 374.894 527.519 356.297 912.519 144.409 1100.34 120.037 1121.97 88.5843 1144.21 57.75 1154.97Z" fill="#FCFCFC" fill-rule="evenodd" transform="matrix(-0.972857 -0.231407 -0.231407 0.972857 1993.07 506.041)"/><path d="M2108.24 708.877 2123.88 713.293 2140.33 655.04C2140.61 654.053 2150.8 644.589 2152.9 643.49 2156.29 641.691 2162.24 640.364 2166.05 640.845 2177.44 642.244 2214.23 652.824 2225.16 657.383 2261.03 672.339 2225.25 729.926 2222.92 756.021 2273.6 797.649 2307.07 860.136 2323.41 923.078 2331.23 953.262 2334.49 962.138 2304.65 977.517 2271.49 994.653 2215.25 1021.53 2180.79 1033.53 2141.25 1047.3 2144.24 1013.88 2135.14 987.405 2087.83 849.931 1974.81 876.088 1905.69 978.858 1856.39 1052.14 1818.67 1177.94 1850.45 1263.82 1880.47 1344.88 1957.8 1369.42 2026.72 1315.52 2036.69 1307.71 2058.67 1281 2068.71 1280.64 2083.89 1280.1 2090.28 1294.88 2097.42 1305.73 2115.7 1333.41 2135.56 1365.02 2152.44 1393.53 2156.11 1399.74 2168.52 1420 2168.27 1425.67 2167.49 1441.83 2141.3 1466.57 2129.2 1477.72 2080.22 1522.9 2017.36 1546.4 1950.52 1543.03 1939.74 1559.03 1932.01 1589.61 1919.85 1603.38 1913.83 1610.17 1900.36 1614.73 1891.39 1612.85 1882.43 1610.98 1832.85 1585.79 1827.54 1579.75 1809.03 1558.76 1837.6 1529.93 1844.6 1509.45L1826.47 1500.57C1817.4 1520.59 1802.74 1562.5 1773.43 1553.06 1764.61 1550.23 1728.42 1527.76 1720.06 1521.29 1693.74 1501.02 1731.04 1459.36 1739.23 1436.68 1686.87 1387.81 1663.09 1303.88 1660.98 1233.71 1656.12 1071.92 1724.74 870.428 1846.31 760.198 1889.39 721.147 1942.43 692.274 2001.25 687.772 2013.66 661.237 2010.4 601.801 2052.96 608.811 2064.64 610.73 2094.25 619 2104.94 623.647 2113.92 627.562 2127.05 642.297 2124.2 652.393L2108.24 708.906ZM2072.35 663.059 2058.42 659.126 2039.51 726.083C2036.18 737.891 1993.9 737.729 1981.62 740.4 1856.87 767.503 1768.96 921.288 1732.85 1033.7 1699.6 1137.23 1685.95 1295.58 1755.31 1387.28 1764.67 1399.63 1788.42 1418.46 1788.17 1433.31 1787.9 1449.14 1760.95 1487.33 1762.91 1493.58 1763.15 1494.4 1774.59 1501.8 1776.77 1503.39 1789.33 1482.69 1797.49 1437.25 1830.34 1449.26 1841.3 1453.26 1872.91 1469.24 1882.69 1475.63 1896.71 1484.79 1897.96 1497.67 1892.34 1512.35 1889.58 1519.58 1872.36 1548.15 1872.27 1551.82 1872.16 1554.95 1889.17 1562.51 1892.01 1561.43 1895.09 1560.27 1913.84 1516.63 1918.44 1509.22 1933.13 1485.59 1953.3 1496.36 1976.61 1495.46 2027.06 1493.51 2085.67 1463.7 2116.3 1424.11L2067.04 1343.2 2043.34 1360.9C1971.42 1408.91 1889 1401.83 1834.16 1331.49 1734.42 1203.51 1830.35 912.096 1978.74 855.521 2079.56 817.086 2154.27 887.867 2182.1 979.429L2272.75 941.161C2274.99 939.225 2274.34 937.098 2274.03 934.631 2269.79 899.509 2235.85 838.923 2212.16 812.531 2202.22 801.484 2183.33 788.506 2176.24 778.453 2174.99 776.688 2170.56 767.637 2170.77 766.883L2190.17 698.185 2177.99 694.744C2170.54 715.666 2165.33 767.069 2133.96 761.247 2121.99 759.027 2077.52 747.219 2068.28 742.228 2063.66 739.733 2055.3 723.65 2056.45 719.56L2072.42 663.047Z" fill="#010101" fill-rule="evenodd"/><path d="M2072.35 663.059 2056.39 719.572C2055.23 723.663 2063.6 739.716 2068.22 742.241 2077.45 747.26 2121.92 759.068 2133.89 761.26 2165.26 767.082 2170.48 715.678 2177.93 694.727L2190.11 698.169 2170.71 766.867C2170.5 767.621 2174.93 776.672 2176.18 778.436 2183.31 788.469 2202.17 801.439 2212.1 812.514 2235.8 838.878 2269.74 899.492 2273.98 934.615 2274.28 937.082 2274.93 939.208 2272.69 941.145L2182.04 979.412C2154.24 887.859 2079.54 817.049 1978.68 855.504 1830.29 912.079 1734.36 1203.5 1834.1 1331.47 1888.92 1401.8 1971.37 1408.89 2043.28 1360.89L2066.99 1343.18 2116.24 1424.1C2085.65 1463.66 2027.01 1493.49 1976.56 1495.44 1953.22 1496.33 1933.07 1485.6 1918.38 1509.21 1913.78 1516.62 1895.07 1560.26 1891.95 1561.42 1889.11 1562.49 1872.1 1554.93 1872.21 1551.8 1872.33 1548.14 1889.52 1519.57 1892.28 1512.33 1897.9 1497.66 1896.65 1484.78 1882.63 1475.62 1872.85 1469.22 1841.24 1453.24 1830.28 1449.24 1797.43 1437.24 1789.3 1482.68 1776.72 1503.37 1774.53 1501.81 1763.09 1494.39 1762.85 1493.57 1760.89 1487.31 1787.87 1449.13 1788.12 1433.29 1788.37 1418.42 1764.61 1399.62 1755.25 1387.26 1685.89 1295.56 1699.54 1137.22 1732.8 1033.68 1768.9 921.272 1856.82 767.487 1981.56 740.383 1993.85 737.713 2036.12 737.874 2039.45 726.067L2058.37 659.11 2072.29 663.043Z" fill="#FDFDFD" fill-rule="evenodd"/></g></svg>