<svg width="1354" height="1445" xmlns="http://www.w3.org/2000/svg" xmlns:xlink="http://www.w3.org/1999/xlink" xml:space="preserve" overflow="hidden"><defs><clipPath id="clip0"><rect x="846" y="464" width="1354" height="1445"/></clipPath></defs><g clip-path="url(#clip0)" transform="translate(-846 -464)"><path d="M2199.93 982.096 2199.93 1119.34C2198.69 1120.13 2199.18 1122.19 2199.18 1123.47 2198.11 1224.84 2193.78 1326.63 2187.94 1427.94 2185.74 1465.94 2182.37 1537.33 2164.09 1569.79 2148.42 1597.61 2092.79 1631.07 2064.96 1648.34 1972.5 1705.66 1878.66 1762.33 1783.68 1815.39 1722.25 1849.71 1653.97 1891.26 1583.29 1900.64 1541.92 1906.15 1499.14 1903.64 1457.46 1905.25L1434.58 1909 1418.84 1909 1400.52 1905.18C1376.06 1898.13 1354.69 1883.83 1333.45 1870.31 1267.65 1828.5 1203.29 1781.87 1140.48 1735.65 1068.74 1682.79 994.86 1628.43 925.244 1573.03 893.357 1547.65 855.767 1521.06 848.723 1477.84L846.111 1459.82C846.352 1447.1 845.768 1434.3 846.111 1421.58 850.475 1258.34 857.107 1094.79 868.583 931.51 871.641 887.837 871.332 841.963 886.76 800.49 898.065 770.091 915.383 757.505 941.669 740.655 987.404 711.321 1037.43 683.604 1084.75 656.541 1153.88 617.029 1223.84 578.548 1294.38 541.546 1336.85 519.262 1382.52 493.952 1426.05 474.557 1436.84 469.743 1448.49 465.341 1460.31 464 1541.75 480.919 1626.45 483.842 1705.37 511.387 1819.66 586.423 1937.96 655.165 2052.97 729.1 2078.91 745.779 2106.16 762.766 2131.24 780.545 2184.43 818.235 2194.43 844.473 2197.77 909.742 2198.97 933.539 2199.59 958.471 2200 982.13ZM1455.36 482.879C1448.05 483.877 1436.02 489.379 1429.04 492.543 1392.21 509.152 1353.62 530.817 1317.61 549.799 1206.39 608.363 1095.92 669.78 987.3 733.02 964.485 746.328 923.148 769.575 909.542 791.687 893.151 818.269 889.131 867.41 886.623 898.497 875.181 1039.63 871.539 1180.93 866.35 1322.16 864.872 1362.64 859.959 1407.55 861.849 1447.47 864.219 1497.54 878.307 1511.47 914.352 1541.94 947.339 1569.83 984.173 1596.51 1018.64 1622.85 1125.12 1704.18 1236.28 1787.99 1349.5 1859.55 1397.71 1890.02 1422.28 1897 1477.53 1875.85 1517.04 1860.72 1556.83 1839.36 1594.05 1819.18 1650.09 1788.74 1705.79 1757.04 1761.21 1725.43 1827.29 1687.78 1894.36 1648.92 1956.59 1605.18 1995.45 1577.87 2018.54 1563.47 2025.21 1512.61 2029.23 1482.14 2031.25 1448.3 2033.56 1417.45 2044.35 1272.57 2044.31 1127.83 2045.51 982.474 2045.82 944.853 2050.77 878.861 2034.21 845.367 2020.98 818.613 1978.68 794.129 1953.87 777.244 1819.8 686.046 1678.06 599.181 1538.72 516.133 1518.49 504.062 1478.8 479.715 1455.4 482.879ZM1490.76 1888.75C1519.89 1886.48 1549.79 1888.06 1578.82 1885 1631.88 1879.43 1683.69 1850.64 1729.63 1825.13 1829.93 1769.45 1930.37 1712.44 2027.41 1651.33 2056.72 1632.86 2090.15 1612.98 2117.67 1592.39 2158.84 1561.54 2162.72 1529.15 2167.67 1480.42 2172 1437.4 2172.06 1394.55 2173.65 1351.39 2178.8 1209.88 2186.94 1068.03 2181.17 926.214 2178.94 871.365 2181.41 841.309 2135.37 804.823 2109.29 784.156 2076.61 764.589 2048.43 746.328 1930.82 670.124 1809.49 599.731 1690.84 525.108 1641.91 515.17 1593.01 497.77 1542.88 494.64 1540.68 494.503 1534.64 493.883 1536.53 496.875 1554.67 504.888 1571.81 516.339 1588.89 526.621 1724.65 608.535 1861.3 693.886 1992.63 782.643 2041.08 815.381 2056.47 835.291 2061.22 895.54 2066.65 965.177 2061.28 1035.19 2059.7 1104.72 2056.85 1229.52 2057.92 1355.42 2044.72 1479.7 2038.98 1533.69 2037.58 1567.76 1990.98 1601.43 1970.47 1616.25 1947.31 1630.52 1925.9 1644.31 1806.95 1721.07 1682.7 1789.33 1556.7 1853.91 1537.38 1863.81 1515.12 1873.03 1496.7 1883.86 1494.54 1885.13 1491.96 1886.48 1490.72 1888.75Z" fill="#101111" fill-rule="evenodd"/><path d="M1455.47 483.281C1478.89 480.118 1518.61 504.457 1538.86 516.524 1678.35 599.544 1820.2 686.381 1954.36 777.549 1979.18 794.428 2021.52 818.905 2034.76 845.65 2051.33 879.134 2046.38 945.103 2046.07 982.712 2044.87 1127.99 2044.9 1272.72 2034.1 1417.55 2031.8 1448.38 2029.77 1482.21 2025.75 1512.67 2019.04 1563.51 1995.97 1577.92 1957.07 1605.21 1894.79 1648.94 1827.67 1687.75 1761.53 1725.43 1706.06 1757.02 1650.32 1788.68 1594.23 1819.14 1557.02 1839.36 1517.16 1860.67 1477.62 1875.8 1422.35 1896.97 1397.76 1889.99 1349.48 1859.5 1236.17 1787.96 1124.92 1704.18 1018.35 1622.88 983.821 1596.55 946.99 1569.91 913.976 1541.99 877.902 1511.54 863.802 1497.61 861.429 1447.56 859.538 1407.68 864.421 1362.79 865.934 1322.29 871.161 1181.1 874.772 1039.85 886.224 898.763 888.734 867.686 892.758 818.561 909.162 791.987 922.814 769.849 964.15 746.61 986.984 733.34 1095.69 670.086 1206.25 608.723 1317.57 550.179 1353.61 531.237 1392.23 509.579 1429.09 492.941 1436.11 489.778 1448.11 484.278 1455.44 483.281ZM1451.72 570.22C1443.78 571.32 1432.98 577.302 1425.62 580.878 1274.48 654.548 1130.25 745.441 981.482 823.786 952.698 849.328 958.097 891.681 955.965 926.505 952.698 980.202 948.125 1033.93 945.442 1087.67 941.281 1170.24 940.009 1253.12 937.189 1335.8 935.469 1386.51 923.295 1442.92 962.706 1482.8 987.776 1508.17 1024.23 1533.61 1053.29 1554.95 1150.09 1626.18 1247.55 1697.58 1346.63 1765.62 1361.42 1775.76 1377.1 1786.66 1392.88 1795.11 1406.57 1802.47 1425.86 1812.44 1441.44 1805.87 1561.25 1744.99 1679.65 1681.56 1796.03 1614.43 1828.63 1595.62 1862.54 1576.58 1894.48 1556.88 1913.09 1545.4 1940.22 1529.62 1948.37 1508.79 1962.99 1471.38 1962.23 1411.02 1964.33 1370.28 1969.25 1274.78 1971 1178.9 1974.03 1083.13 1975.64 1032.49 1978.94 979.274 1974.82 928.74 1971.58 889.275 1963.23 880.371 1931.69 859.367 1819.21 784.493 1700.91 718.008 1587.01 645.3 1560.53 628.387 1534.88 610.133 1508.12 593.7 1493.57 584.762 1468.99 567.849 1451.72 570.22Z" fill="#FBFBFB" fill-rule="evenodd"/><path d="M1491 1888C1492.24 1885.73 1494.81 1884.39 1496.98 1883.12 1515.38 1872.3 1537.63 1863.06 1556.93 1853.2 1682.83 1788.67 1807.03 1720.47 1925.92 1643.79 1947.28 1630.01 1970.43 1615.72 1990.96 1600.94 2037.53 1567.31 2038.93 1533.26 2044.67 1479.32 2057.86 1355.15 2056.79 1229.37 2059.64 1104.68 2061.22 1035.21 2066.61 965.26 2061.15 895.686 2056.45 835.492 2041.06 815.633 1992.61 782.891 1861.36 694.214 1724.79 608.939 1589.11 527.099 1572.08 516.826 1554.94 505.385 1536.78 497.38 1534.89 494.39 1540.9 495.009 1543.13 495.146 1593.23 498.307 1642.1 515.692 1691 525.587 1809.58 600.143 1930.83 670.438 2048.38 746.609 2076.54 764.853 2109.23 784.437 2135.26 805.051 2181.28 841.505 2178.84 871.533 2181.03 926.333 2186.77 1068.02 2178.63 1209.75 2173.51 1351.13 2171.93 1394.25 2171.9 1437.06 2167.54 1480.04 2162.63 1528.72 2158.75 1561.12 2117.57 1591.91 2090.07 1612.49 2056.69 1632.35 2027.36 1650.8 1930.35 1711.81 1829.97 1768.81 1729.77 1824.44 1683.86 1849.93 1632.07 1878.66 1579.05 1884.26 1550 1887.31 1520.15 1885.73 1491.03 1888Z" fill="#FBFBFB" fill-rule="evenodd"/><path d="M1451.28 570.225C1468.5 567.853 1493.1 584.801 1507.64 593.705 1534.41 610.136 1560.05 628.391 1586.47 645.304 1700.29 718.045 1818.51 784.495 1930.91 859.368 1962.43 880.371 1970.78 889.241 1974.01 928.74 1978.13 979.274 1974.83 1032.52 1973.22 1083.13 1970.19 1178.93 1968.41 1274.78 1963.53 1370.27 1961.43 1410.98 1962.19 1471.38 1947.58 1508.78 1939.44 1529.64 1912.32 1545.42 1893.73 1556.87 1861.77 1576.57 1827.92 1595.61 1795.34 1614.42 1679.05 1681.52 1560.7 1744.98 1441 1805.86 1425.44 1812.43 1406.16 1802.46 1392.48 1795.1 1376.71 1786.64 1361.04 1775.75 1346.26 1765.61 1247.25 1697.61 1149.83 1626.17 1053.13 1554.95 1024.09 1533.56 987.695 1508.16 962.609 1482.79 923.226 1442.91 935.392 1386.5 937.11 1335.79 939.928 1253.12 941.199 1170.24 945.358 1087.66 948.038 1033.97 952.609 980.202 955.873 926.505 957.97 891.682 952.574 849.33 981.372 823.788 1130.04 745.443 1274.16 654.585 1425.2 580.882 1432.52 577.307 1443.34 571.325 1451.28 570.225ZM1465.68 594.77C1466.78 593.12 1463.17 590.164 1461.56 589.545 1454.34 586.898 1443.69 591.229 1436.95 594.117 1419.25 601.68 1399.11 613.127 1381.73 622.099 1267.01 681.365 1155.98 747.54 1042.61 809.281 1027.97 817.256 1011.48 824.578 997.386 833.001 978.039 844.585 975.255 869.956 973.159 890.478 955.426 1063.7 951.028 1242.53 952.196 1416.75 952.402 1446.62 955.942 1453.57 977.661 1473.71 1006.77 1500.66 1046.01 1527.38 1078.21 1551.58 1150.21 1605.75 1223.3 1658.76 1296.81 1710.81 1323.34 1729.58 1349.77 1748.73 1377.33 1765.98 1389.39 1773.55 1413.65 1790.12 1427.09 1791.18 1428.43 1791.29 1444.44 1791.08 1441.73 1787.4 1441.38 1786.95 1432.86 1784.41 1430.97 1783.55 1404.23 1771.11 1369.73 1745.32 1344.47 1728.34 1254.85 1668.08 1168.7 1603.11 1082.1 1538.65 1056.53 1519.61 1027.18 1501.32 1003.88 1479.66 962.884 1441.61 975.839 1371.37 977.695 1320.77 982.747 1181.03 986.321 1042.01 997.902 902.442 1002.4 848.401 1015.84 837.71 1059.9 811.515 1125.02 772.773 1194.85 740.871 1261.83 705.291 1328.8 669.711 1389.73 634.063 1454 599.067 1455.51 596.901 1465.4 595.217 1465.75 594.701ZM1476.74 607.696C1475.61 607.902 1474.51 608.452 1473.45 608.899 1460.39 614.365 1443.93 625.984 1430.97 633.134 1326.64 690.784 1219.52 743.346 1115.09 800.79 1091.79 813.612 1064.12 827.535 1042.16 841.835 1020.2 856.136 1017.56 871.503 1014.47 896.597 1010.17 931.284 1008.45 969.338 1006.11 1004.47 998.177 1124.24 994.603 1244.28 991.132 1364.33 990.307 1392.34 985.049 1434.49 1004.57 1456.53 1023.92 1478.39 1058.01 1501.56 1081.89 1519.4 1191.55 1601.25 1305.95 1688.33 1422.24 1760.07 1428.7 1764.06 1450.83 1778.36 1457.05 1778.36 1462.11 1778.36 1484.51 1766.22 1490.42 1763.13 1587.78 1712.56 1683.07 1657.66 1778.54 1603.69 1815.07 1583.03 1853.28 1564.16 1888.44 1541.16 1901.08 1532.91 1920.05 1520.74 1928.27 1508.26 1941.67 1487.84 1942.67 1450.85 1944.73 1426.51 1954.87 1307.5 1953.63 1188.25 1956.69 1068.89 1957.65 1031.25 1960.85 993.574 1959.75 955.691 1958.65 917.567 1960.88 901.101 1927.41 879.306 1858.82 834.651 1787.95 792.574 1718.23 749.603 1647.71 706.15 1577.26 662.286 1506.06 619.899 1501.76 617.356 1489.49 608.865 1485.92 607.799 1483.69 607.146 1479.05 607.249 1476.71 607.627Z" fill="#101111" fill-rule="evenodd"/><path d="M1476.79 607.327C1479.12 606.915 1483.76 606.811 1486 607.499 1489.57 608.565 1501.87 617.055 1506.13 619.599 1577.33 661.983 1647.77 705.811 1718.28 749.296 1787.97 792.264 1858.82 834.339 1927.44 878.992 1960.87 900.751 1958.67 917.217 1959.77 955.373 1960.87 993.255 1957.68 1030.93 1956.71 1068.57 1953.66 1187.92 1954.89 1307.17 1944.76 1426.17 1942.7 1450.51 1941.7 1487.5 1928.3 1507.92 1920.12 1520.39 1901.12 1532.56 1888.47 1540.81 1853.32 1563.81 1815.11 1582.68 1778.58 1603.34 1683.13 1657.31 1587.84 1712.21 1490.5 1762.77 1484.55 1765.87 1462.18 1778 1457.13 1778 1450.95 1778 1428.78 1763.7 1422.32 1759.71 1306.01 1688.01 1191.65 1600.93 1082.01 1519.05 1058.13 1501.21 1024.04 1478.04 1004.69 1456.18 985.176 1434.15 990.433 1392 991.258 1363.99 994.728 1243.95 998.267 1123.91 1006.24 1004.15 1008.58 969.055 1010.29 931.001 1014.59 896.283 1017.68 871.189 1020.09 856.03 1042.28 841.523 1064.48 827.017 1091.9 813.302 1115.2 800.48 1219.62 743.039 1326.73 690.48 1431.05 632.833 1444.01 625.683 1460.46 614.065 1473.52 608.599 1474.59 608.152 1475.69 607.602 1476.82 607.396ZM1260.34 1161.11C1258.93 1161.45 1258.9 1160.63 1258.21 1159.87 1252.47 1153.24 1246.26 1140 1241.96 1131.89 1221.14 1092.7 1203.89 1051.42 1181.76 1012.92 1176.29 1003.43 1167.77 986.62 1157.09 982.839 1148.5 979.814 1138.53 981.705 1129.53 981.155 1114 980.226 1083.66 973.042 1073.93 989.301 1067.78 999.614 1069.12 1030.21 1068.43 1043.03 1064.45 1118.55 1063.11 1194 1059.43 1269.42 1058.5 1288.78 1050.39 1329.58 1065 1344.02 1072.87 1351.78 1095.24 1352.58 1106.23 1353.02 1139.77 1354.4 1153.41 1355.12 1156.85 1318.13 1160.76 1275.92 1157.7 1231.78 1160.59 1189.19 1160.66 1188.06 1160.01 1187.03 1161.69 1187.34L1246.67 1342.26C1259.52 1365.74 1288.9 1358.42 1310.92 1359.73 1316.01 1360.03 1319.1 1361.72 1325.05 1361.17 1346.97 1359.04 1350.78 1344.12 1351.78 1324.94 1352.54 1310.84 1352.05 1296.3 1352.54 1282.21 1355.08 1203.73 1362.67 1125.29 1364.46 1046.78 1365.04 1021.82 1371.61 993.461 1338.62 989.473 1327.25 988.098 1289.21 985.967 1280 989.336 1266.73 994.183 1265.5 1007.66 1264.78 1019.83 1262.37 1060.84 1261.65 1102.53 1260.24 1143.47 1260.03 1149.35 1260.45 1155.26 1260.24 1161.11ZM1485.24 1136.39 1485.24 1102.29C1485.24 1098.06 1493.97 1098.68 1496.85 1098.92 1524.86 1101.19 1554.07 1105.11 1582.31 1103.39 1623.3 1100.92 1609.9 1066.85 1611.9 1038.53 1612.27 1033.23 1614.06 1030.83 1613.1 1024.64 1610.14 1005.73 1595.47 1003.02 1579.32 1001.44 1536.23 997.242 1491.53 999.305 1448.09 997.723 1437.61 997.345 1417.51 993.736 1408.58 997.139 1389.16 1004.46 1393.22 1028.15 1392.29 1045.33 1387.62 1132.61 1380.64 1219.75 1378.82 1306.96 1378.31 1330.99 1370.68 1361.38 1402.5 1366.43 1415.04 1368.42 1452.73 1370.04 1463.49 1365.4 1478.26 1359 1477.71 1342.19 1478.5 1328.68 1479.71 1308.03 1479.19 1287.19 1479.23 1266.43L1482.42 1237.76C1484.14 1235.39 1516.47 1235.94 1521.66 1236.08 1536.95 1236.42 1560.01 1239.93 1574.51 1237.28 1594.54 1233.64 1592.45 1210.74 1593.24 1195.28 1593.82 1183.55 1596.36 1159.63 1590.83 1149.69 1584.48 1138.21 1572.42 1139.35 1561.35 1138.69 1548.26 1137.94 1534.79 1137.42 1521.7 1137.15 1509.57 1136.91 1497.37 1137.84 1485.31 1136.43ZM1807.69 1119.24C1813.5 1119.24 1819.41 1118.9 1825.25 1119.1 1840.33 1119.69 1870.78 1125.19 1883.11 1116.32 1898.47 1105.25 1892.87 1070.43 1893.04 1053.51 1893.15 1042.93 1896.72 1032.41 1887.1 1024.3 1874.76 1013.88 1838.58 1017.73 1822.22 1017.21 1762.47 1015.36 1703.02 1008.52 1643.06 1008.17 1619.73 1011.68 1622.41 1040.25 1622.45 1058.09 1622.45 1066.3 1621.72 1069.88 1621.07 1077.65 1617.53 1118.69 1661.41 1107.76 1687.32 1109.41 1691.1 1109.65 1705.08 1111.2 1706.29 1115.18 1705.39 1133.4 1705.53 1151.59 1704.95 1169.8 1703.09 1228.69 1699.83 1287.68 1697.39 1346.66 1695.81 1385.27 1712.06 1384.58 1744.29 1386.02 1776.49 1387.47 1794.91 1391.11 1797.9 1352.71 1799.68 1329.68 1798.65 1304.86 1799.41 1281.49 1800.89 1235.08 1803.02 1188.37 1805.42 1142.06 1805.8 1134.47 1805.04 1126.56 1807.72 1119.27Z" fill="#FDFDFD" fill-rule="evenodd"/><path d="M1465.85 593.996C1465.51 594.512 1455.61 596.197 1454.1 598.364 1389.82 633.375 1326.54 670.311 1261.88 704.633 1197.22 738.955 1125.04 772.143 1059.9 810.902 1015.84 837.108 1002.4 847.803 997.893 901.866 986.309 1041.49 982.699 1180.57 977.681 1320.37 975.859 1371 962.9 1441.29 1003.87 1479.33 1027.18 1500.96 1056.53 1519.26 1082.11 1538.34 1168.73 1602.83 1254.87 1667.83 1344.55 1728.12 1369.81 1745.1 1404.33 1770.9 1431.07 1783.35 1432.96 1784.24 1441.48 1786.75 1441.83 1787.2 1444.54 1790.84 1428.52 1791.09 1427.18 1790.98 1413.74 1789.92 1389.48 1773.34 1377.41 1765.77 1349.84 1748.51 1323.41 1729.35 1296.87 1710.58 1223.31 1658.47 1150.2 1605.48 1078.22 1551.28 1046.02 1527.03 1006.76 1500.34 977.647 1473.38 955.923 1453.26 952.382 1446.28 952.176 1416.39 951.007 1242.1 955.407 1063.2 973.144 889.898 975.24 869.367 978.024 843.986 997.377 832.396 1011.5 823.936 1028 816.611 1042.61 808.666 1156.01 746.9 1267.07 680.697 1381.81 621.406 1399.2 612.396 1419.35 600.978 1437.05 593.412 1443.82 590.523 1454.48 586.155 1461.66 588.838 1463.28 589.422 1466.92 592.415 1465.79 594.065Z" fill="#FBFBFB" fill-rule="evenodd"/><path d="M1260.54 1161.09C1260.71 1155.25 1260.3 1149.31 1260.54 1143.47 1261.95 1102.59 1262.68 1060.95 1265.09 1019.99 1265.81 1007.81 1267.06 994.384 1280.36 989.544 1289.57 986.18 1327.76 988.308 1339.17 989.681 1372.23 993.664 1365.68 1021.98 1365.09 1046.91 1363.3 1125.32 1355.68 1203.65 1353.13 1282.03 1352.68 1296.1 1353.13 1310.62 1352.37 1324.7 1351.37 1343.85 1347.55 1358.75 1325.55 1360.88 1319.59 1361.46 1316.45 1359.75 1311.39 1359.44 1289.29 1358.13 1259.85 1365.45 1246.92 1342L1161.68 1187.28C1159.99 1186.97 1160.64 1188 1160.57 1189.13 1157.64 1231.67 1160.74 1275.71 1156.81 1317.9 1153.37 1354.84 1139.68 1354.12 1106.04 1352.74 1095.01 1352.3 1072.6 1351.54 1064.67 1343.75 1050.02 1329.33 1058.16 1288.62 1059.09 1269.26 1062.78 1193.94 1064.12 1118.62 1068.12 1043.17 1068.81 1030.36 1067.43 999.774 1073.64 989.51 1083.39 973.272 1113.83 980.447 1129.41 981.374 1138.44 981.923 1148.44 980.001 1157.06 983.056 1167.78 986.832 1176.33 1003.58 1181.81 1013.09 1204.01 1051.54 1221.31 1092.74 1242.2 1131.91 1246.51 1140.01 1252.78 1153.19 1258.51 1159.85 1259.16 1160.64 1259.23 1161.43 1260.64 1161.09ZM1347.55 1010.07C1342.55 1005.13 1308.39 1006.71 1300.01 1006.13 1292.81 1005.61 1287.08 1001.28 1283.26 1011.17 1280.19 1019.07 1279.78 1033.66 1279.29 1042.41 1276.54 1090.71 1279.43 1139.49 1275.57 1187.66 1275.23 1191.84 1273.6 1208.67 1271.47 1211.24 1269.09 1214.12 1264.47 1209.83 1262.82 1207.84 1247.54 1189.58 1233.03 1149 1222.07 1126.38 1202.01 1084.98 1179.12 1044.85 1157.5 1004.24 1156.57 1003.14 1155.54 1002.21 1154.26 1001.46 1143.92 995.346 1105.73 995.414 1093.39 997.303 1085.49 998.504 1086.18 1002.66 1085.32 1009.45 1082.36 1032.52 1083.01 1056.62 1082.32 1079.83 1080.39 1146.12 1078.05 1212.54 1074.81 1278.97 1074.12 1293.18 1071.29 1307.05 1072.53 1321.61 1073.05 1327.41 1073.08 1330.09 1079.12 1331.53 1090.77 1334.34 1120.17 1335.1 1132.34 1334 1140.03 1333.31 1140.17 1326.31 1140.96 1320.1 1146.82 1273.03 1141.85 1222.36 1144.72 1174.89 1145.16 1167.26 1145.68 1157.76 1147.2 1150.41 1148.82 1142.45 1149.89 1139.7 1157.4 1145.81 1194.04 1209.21 1226.86 1274.82 1265.06 1337.36 1267.95 1340.21 1273.57 1340.97 1277.47 1341.48 1288.19 1342.89 1315.63 1344.81 1325.42 1342.82 1334.21 1341.04 1333.69 1337.67 1334.9 1329.78 1338.38 1307.19 1338.27 1282.44 1339.51 1259.51 1342.72 1200.5 1344.38 1141.14 1347.06 1082.09 1347.82 1065.14 1349.37 1048.07 1350.06 1031.18 1350.24 1026.79 1350.58 1013.03 1347.58 1010.04Z" fill="#101111" fill-rule="evenodd"/><path d="M1485.78 1136.45C1497.85 1137.86 1510.06 1136.93 1522.21 1137.17 1535.32 1137.45 1548.84 1137.96 1561.91 1138.72 1572.99 1139.37 1585.06 1138.24 1591.43 1149.69 1596.96 1159.61 1594.42 1183.49 1593.83 1195.19 1593.04 1210.63 1595.18 1233.48 1575.08 1237.11 1560.57 1239.76 1537.48 1236.26 1522.17 1235.91 1516.98 1235.81 1484.61 1235.23 1482.89 1237.59L1479.69 1266.21C1479.65 1286.93 1480.17 1307.76 1478.97 1328.34 1478.17 1341.83 1478.72 1358.6 1463.93 1364.98 1453.16 1369.65 1415.42 1368 1402.87 1366.01 1371.01 1360.97 1378.65 1330.64 1379.16 1306.66 1380.99 1219.58 1387.97 1132.64 1392.65 1045.53 1393.58 1028.41 1389.52 1004.77 1408.96 997.431 1417.9 994.068 1438.03 997.636 1448.52 998.014 1491.97 999.592 1536.73 997.534 1579.9 1001.72 1596.07 1003.3 1610.76 1006.01 1613.72 1024.88 1614.68 1031.05 1612.89 1033.45 1612.51 1038.74 1610.52 1067.01 1623.94 1101.01 1582.89 1103.48 1554.62 1105.16 1525.34 1101.25 1497.34 1099.02 1494.48 1098.78 1485.71 1098.13 1485.71 1102.38L1485.71 1136.42ZM1576.46 1157.48C1573.16 1157.11 1569.75 1157.62 1566.45 1157.38 1556.03 1156.66 1544.54 1154.5 1534.21 1154.36 1519.46 1154.15 1488.18 1158.41 1476.01 1151.03 1473.22 1149.35 1472.43 1148.39 1471.16 1145.41 1466.58 1134.6 1468.75 1106.12 1471.88 1094.53 1474.18 1086.05 1476.76 1084.1 1485.47 1082.62 1509.79 1078.5 1542.2 1085.33 1567.17 1086.33 1573.26 1086.57 1592.32 1087.77 1595.24 1082.07 1597.38 1077.92 1595.69 1059.91 1596.07 1053.7 1596.52 1046.63 1601.4 1028.45 1595.76 1023.4 1593.21 1021.14 1578.77 1019.35 1574.71 1018.94 1548.7 1016.37 1521.25 1016.27 1495.13 1015.24 1473.22 1014.38 1446.94 1011.6 1425.33 1012.94 1422.37 1013.11 1412.29 1014.17 1410.68 1016.27 1409.16 1018.26 1407.34 1041.21 1407 1045.53 1401.32 1119.74 1399.08 1195.5 1396.5 1270.02 1395.81 1290.16 1392.82 1314.55 1394.23 1334.31 1394.61 1339.7 1394.54 1345.94 1400.49 1347.52 1409.75 1349.99 1448.97 1352.08 1457.12 1349.1 1458.43 1348.62 1459.67 1347.9 1460.87 1347.25 1460.94 1335.92 1463.52 1324.64 1464.07 1313.38 1465.24 1289.57 1462.76 1265.28 1464.79 1241.54 1465.82 1229.6 1466.58 1220.23 1480.24 1218.04 1507.38 1213.72 1539.34 1224.42 1566.45 1221.71 1576.36 1220.71 1577.46 1214.3 1578.08 1205.62 1578.66 1197.45 1578.18 1188.98 1578.08 1180.98 1577.97 1172.99 1578.94 1165.06 1576.5 1157.48Z" fill="#101111" fill-rule="evenodd"/><path d="M1807.82 1119.21C1805.14 1126.5 1805.89 1134.41 1805.51 1142.02 1803.14 1188.36 1801.01 1235.16 1799.5 1281.58 1798.75 1304.94 1799.81 1329.82 1797.99 1352.87 1795 1391.27 1776.59 1387.62 1744.4 1386.21 1712.17 1384.76 1695.89 1385.45 1697.5 1346.81 1699.94 1287.8 1703.21 1228.73 1705.06 1169.78 1705.65 1151.58 1705.51 1133.38 1706.4 1115.11 1705.2 1111.12 1691.18 1109.61 1687.44 1109.33 1661.53 1107.68 1617.66 1118.62 1621.2 1077.54 1621.85 1069.8 1622.61 1066.18 1622.58 1057.96 1622.54 1040.1 1619.86 1011.51 1643.19 1008 1703.14 1008.38 1762.57 1015.19 1822.31 1017.05 1838.7 1017.57 1874.84 1013.71 1887.17 1024.14 1896.79 1032.26 1893.22 1042.79 1893.12 1053.38 1892.98 1070.31 1898.58 1105.17 1883.19 1116.25 1870.86 1125.16 1840.42 1119.65 1825.34 1119.03 1819.53 1118.79 1813.59 1119.17 1807.78 1119.17ZM1650.13 1025.51C1637.8 1027.06 1640.61 1032.19 1639.79 1041.41 1638.83 1052.28 1636.97 1063.53 1636.76 1074.41 1636.52 1086.48 1636.32 1090.37 1649.17 1092.06 1665.69 1094.26 1702.97 1089.34 1715.26 1097.18 1721.52 1101.18 1722.58 1109.54 1723.03 1116.42 1724.57 1141.05 1719.73 1167.51 1718.46 1192.22 1716.33 1233.51 1717.53 1274.87 1715.54 1316.09 1714.95 1328.16 1711.49 1340.69 1712.52 1352.8 1712.93 1357.69 1713.68 1361.81 1717.98 1364.57 1726.05 1369.76 1758.65 1369.62 1769.13 1368.97 1776.14 1368.52 1779.92 1368.15 1780.71 1360.3 1783.11 1336.59 1782.5 1310.07 1783.7 1286.01 1786.52 1228.55 1787.96 1170.61 1791.94 1113.43 1792.29 1108.75 1792.22 1106.03 1796.55 1103.79 1808.4 1097.6 1850.04 1105.55 1866.53 1104.07 1872.4 1103.55 1875.18 1102.72 1876.46 1096.74 1878 1089.44 1878.65 1076.2 1878.93 1068.45 1879.17 1061.99 1879.96 1042.75 1875.91 1038.38 1873.16 1035.42 1866.11 1035.39 1862.03 1035.04 1801.05 1029.85 1738.69 1031.5 1677.68 1027.51 1668.34 1026.89 1659.78 1024.27 1650.16 1025.48Z" fill="#101111" fill-rule="evenodd"/><path d="M1347.4 1009.88C1350.39 1012.87 1350.08 1026.66 1349.88 1031.06 1349.19 1047.97 1347.64 1065.06 1346.89 1082.04 1344.21 1141.14 1342.56 1200.57 1339.37 1259.7 1338.13 1282.67 1338.23 1307.42 1334.76 1330.07 1333.56 1337.95 1334.08 1341.31 1325.32 1343.14 1315.59 1345.13 1288.22 1343.24 1277.53 1341.8 1273.65 1341.28 1268.05 1340.52 1265.17 1337.67 1227.14 1275.04 1194.43 1209.37 1157.88 1145.85 1150.4 1139.76 1149.33 1142.51 1147.72 1150.45 1146.24 1157.84 1145.72 1167.37 1145.24 1174.96 1142.36 1222.51 1147.34 1273.25 1141.5 1320.38 1140.74 1326.6 1140.57 1333.58 1132.91 1334.3 1120.78 1335.4 1091.48 1334.65 1079.87 1331.83 1073.86 1330.38 1073.83 1327.7 1073.31 1321.89 1072.07 1307.32 1074.89 1293.43 1075.58 1279.2 1078.81 1212.68 1081.14 1146.16 1083.07 1079.77 1083.75 1056.53 1083.07 1032.37 1086.05 1009.3 1086.91 1002.46 1086.26 998.333 1094.09 997.13 1106.39 995.239 1144.45 995.17 1154.76 1001.29 1155.99 1002.05 1157.06 1002.97 1157.99 1004.07 1179.53 1044.74 1202.34 1084.89 1222.33 1126.39 1233.25 1149.04 1247.71 1189.68 1262.93 1207.97 1264.58 1209.96 1269.15 1214.26 1271.55 1211.37 1273.68 1208.79 1275.33 1191.95 1275.64 1187.75 1279.52 1139.49 1276.64 1090.67 1279.35 1042.3 1279.83 1033.54 1280.25 1018.92 1283.3 1011.02 1287.12 1001.12 1292.82 1005.45 1300 1005.96 1308.35 1006.55 1342.39 1004.97 1347.37 1009.92Z" fill="#FBFBFB" fill-rule="evenodd"/><path d="M1576.1 1157.34C1578.5 1164.95 1577.54 1173.04 1577.68 1180.92 1577.82 1188.8 1578.26 1197.43 1577.68 1205.62 1577.06 1214.3 1575.96 1220.77 1566.08 1221.76 1539.02 1224.48 1507.19 1213.75 1480.13 1218.08 1466.51 1220.28 1465.75 1229.65 1464.72 1241.66 1462.67 1265.47 1465.17 1289.83 1464 1313.72 1463.46 1325 1460.88 1336.33 1460.81 1347.68 1459.61 1348.34 1458.38 1349.09 1457.07 1349.54 1448.91 1352.5 1409.84 1350.44 1400.61 1347.96 1394.72 1346.38 1394.75 1340.11 1394.37 1334.71 1392.97 1314.89 1395.95 1290.42 1396.64 1270.22 1399.21 1195.47 1401.44 1119.49 1407.1 1045.05 1407.44 1040.75 1409.26 1017.69 1410.77 1015.7 1412.38 1013.6 1422.46 1012.53 1425.38 1012.36 1446.92 1011.02 1473.13 1013.8 1494.98 1014.66 1521.05 1015.7 1548.39 1015.8 1574.32 1018.38 1578.36 1018.79 1592.77 1020.58 1595.31 1022.86 1600.94 1027.91 1596.06 1046.15 1595.62 1053.24 1595.24 1059.47 1596.96 1077.54 1594.8 1081.7 1591.85 1087.41 1572.88 1086.21 1566.81 1085.97 1541.94 1084.97 1509.59 1078.16 1485.34 1082.25 1476.66 1083.73 1474.09 1085.69 1471.79 1094.19 1468.67 1105.83 1466.47 1134.35 1471.07 1145.23 1472.34 1148.22 1473.13 1149.22 1475.91 1150.87 1488.05 1158.27 1519.23 1153.97 1533.94 1154.21 1544.27 1154.35 1555.69 1156.52 1566.08 1157.24 1569.41 1157.48 1572.77 1156.96 1576.07 1157.34Z" fill="#FBFBFB" fill-rule="evenodd"/><path d="M1650.44 1025.31C1660.07 1024.11 1668.58 1026.72 1677.91 1027.34 1738.81 1031.33 1801.08 1029.65 1861.92 1034.87 1866.03 1035.22 1873.03 1035.29 1875.77 1038.21 1879.82 1042.55 1879 1061.81 1878.79 1068.27 1878.52 1076.01 1877.87 1089.25 1876.32 1096.55 1875.05 1102.5 1872.28 1103.32 1866.41 1103.87 1849.95 1105.35 1808.39 1097.41 1796.56 1103.6 1792.24 1105.87 1792.27 1108.58 1791.96 1113.23 1787.98 1170.36 1786.54 1228.31 1783.73 1285.75 1782.57 1309.83 1783.15 1336.35 1780.75 1360.01 1779.96 1367.85 1776.19 1368.23 1769.19 1368.68 1758.73 1369.33 1726.19 1369.47 1718.13 1364.28 1713.81 1361.49 1713.09 1357.4 1712.68 1352.51 1711.65 1340.41 1715.11 1327.89 1715.7 1315.81 1717.72 1274.61 1716.48 1233.27 1718.61 1191.99 1719.88 1167.33 1724.72 1140.85 1723.17 1116.22 1722.73 1109.34 1721.7 1100.98 1715.42 1096.99 1703.15 1089.15 1665.94 1094.07 1649.44 1091.87 1636.62 1090.18 1636.82 1086.3 1637.06 1074.22 1637.27 1063.35 1639.12 1052.11 1640.08 1041.24 1640.9 1032.02 1638.09 1026.86 1650.4 1025.35Z" fill="#FBFBFB" fill-rule="evenodd"/></g></svg>