<?xml version="1.0" encoding="UTF-8"?>
<svg id="Layer_1" data-name="Layer 1" xmlns="http://www.w3.org/2000/svg" viewBox="0 0 57.79 10.9">
  <path d="M4.37,6.63c.37,0,.7-.05,1-.16s.53-.21.68-.32l.77,1.52c-.19.16-.51.32-.96.49-.45.16-.99.25-1.62.25-.58,0-1.13-.1-1.64-.31-.51-.2-.96-.49-1.35-.86s-.7-.8-.92-1.3-.33-1.04-.33-1.62.11-1.13.33-1.63c.22-.5.52-.94.92-1.31.39-.37.84-.66,1.36-.87.51-.21,1.06-.31,1.65-.31.62,0,1.16.08,1.62.25.45.16.78.33.96.49l-.77,1.52c-.15-.11-.37-.21-.68-.32-.3-.11-.64-.16-1-.16-.41,0-.76.06-1.07.19-.3.13-.56.3-.76.52-.2.22-.36.47-.46.74-.1.28-.15.57-.15.87s.05.6.15.88c.1.28.25.53.46.75.2.22.46.39.76.52.3.13.66.19,1.07.19h-.02Z"/>
  <path d="M9.58,8.26h-1.82V3.33h1.82v.76h-.03c.03-.09.11-.21.23-.35.12-.14.3-.27.52-.38.22-.11.5-.17.82-.17.23,0,.44.03.63.1.19.07.33.14.42.2l-.71,1.48c-.06-.07-.16-.14-.3-.21s-.32-.11-.53-.11c-.24,0-.44.06-.6.19-.16.12-.27.27-.35.45-.07.18-.11.34-.11.5v2.47h.01Z"/>
  <path d="M15.16,6.68l1.33-3.35h1.79l-3.38,7.42h-1.82l1.14-2.5-2.06-4.93h1.82l1.19,3.35h-.01Z"/>
  <path d="M20.64,10.76h-1.81V3.34h1.82v.72c.06-.11.16-.23.32-.37.16-.13.36-.25.61-.35s.52-.15.84-.15c.48,0,.89.12,1.23.35.34.24.61.55.79.94.18.39.28.83.28,1.31s-.1.92-.29,1.31c-.2.39-.47.71-.83.94-.35.23-.77.35-1.25.35-.34,0-.64-.06-.88-.18s-.43-.26-.57-.41-.23-.27-.26-.35v3.31ZM22.94,5.8c0-.22-.05-.42-.15-.6s-.23-.32-.4-.42-.36-.15-.57-.15-.42.05-.59.15-.31.24-.41.42-.15.38-.15.6.05.42.15.6.24.32.41.42.37.15.59.15.4-.05.57-.15.31-.24.4-.42c.1-.18.15-.38.15-.6Z"/>
  <path d="M25.22,3.34h.84V1.32h1.81v2.02h1.1v1.5h-1.1v1.37c0,.2.03.37.09.49.06.13.17.19.33.19.11,0,.2-.02.28-.07s.12-.08.14-.1l.62,1.3s-.12.07-.26.13c-.15.06-.33.12-.55.17s-.47.08-.75.08c-.49,0-.9-.14-1.22-.42s-.48-.71-.48-1.29v-1.87h-.84v-1.5.02Z"/>
  <path d="M32.51,8.41c-.54,0-1.02-.11-1.44-.33s-.75-.53-.98-.92c-.24-.39-.36-.84-.36-1.34s.12-.95.36-1.35.57-.71.98-.93.9-.34,1.44-.34,1.02.11,1.43.34.73.54.97.93c.23.39.35.84.35,1.35s-.12.95-.35,1.34-.55.7-.97.92c-.41.22-.89.33-1.43.33ZM32.51,6.91c.21,0,.39-.05.54-.14s.27-.22.35-.39.13-.36.13-.57-.04-.41-.13-.58-.2-.3-.35-.4c-.15-.1-.33-.14-.54-.14s-.39.05-.54.14c-.15.1-.27.23-.36.4s-.13.36-.13.58.04.4.13.57c.09.17.21.3.36.39s.33.14.54.14Z"/>
  <path d="M38.02,8.26h-1.83V0h1.83v8.26Z"/>
  <path d="M41.71,8.41c-.54,0-1.02-.11-1.44-.33s-.75-.53-.98-.92c-.24-.39-.36-.84-.36-1.34s.12-.95.36-1.35.57-.71.98-.93.9-.34,1.44-.34,1.02.11,1.43.34.73.54.97.93c.23.39.35.84.35,1.35s-.12.95-.35,1.34-.55.7-.97.92c-.41.22-.89.33-1.43.33ZM41.71,6.91c.21,0,.39-.05.54-.14s.27-.22.35-.39.13-.36.13-.57-.04-.41-.13-.58-.2-.3-.35-.4c-.15-.1-.33-.14-.54-.14s-.39.05-.54.14c-.15.1-.27.23-.36.4s-.13.36-.13.58.04.4.13.57.21.3.36.39.33.14.54.14Z"/>
  <path d="M49.22,8.26v-.8c-.04.08-.13.2-.27.35-.15.15-.34.29-.58.41-.24.12-.52.18-.84.18-.48,0-.9-.12-1.26-.35-.36-.23-.64-.55-.84-.94-.2-.39-.3-.83-.3-1.31s.1-.92.3-1.31.48-.71.84-.94c.36-.24.78-.35,1.26-.35.31,0,.58.05.81.15s.42.21.56.35c.14.13.24.26.3.37v-.72h1.81v4.93h-1.79v-.02ZM47.98,10.9c-.34,0-.68-.03-1.02-.09s-.65-.16-.95-.31c-.29-.14-.54-.34-.74-.59l1.07-1.11c.09.11.21.21.34.32.13.1.3.19.5.26s.44.1.72.1c.26,0,.49-.05.69-.14.2-.09.35-.23.46-.4.11-.18.17-.39.17-.64v-.12h1.79v.23c0,.54-.13,1-.41,1.37-.27.37-.63.65-1.09.84s-.97.28-1.54.28h.01ZM46.92,5.8c0,.22.05.42.16.6.1.18.24.32.42.42.17.1.37.15.58.15s.41-.05.58-.15c.17-.1.3-.24.4-.42.1-.18.15-.38.15-.6s-.05-.42-.15-.6c-.1-.18-.23-.32-.4-.42-.17-.1-.36-.15-.58-.15s-.41.05-.58.15c-.17.1-.31.24-.42.42-.1.18-.16.38-.16.6Z"/>
  <path d="M54.67,6.68l1.33-3.35h1.79l-3.38,7.42h-1.82l1.14-2.5-2.06-4.93h1.82l1.19,3.35h0Z"/>
</svg>