<svg width="2970" height="661" xmlns="http://www.w3.org/2000/svg" xmlns:xlink="http://www.w3.org/1999/xlink"
     xml:space="preserve" overflow="hidden"><g transform="translate(-730 -1272)"><path d="M3269.12 1405.53 3269.12 1506.78 3307.06 1506.78 3307.06 1568.27 3269.12 1568.27 3269.12 1718.34C3269.12 1719.43 3271.78 1737.92 3272.15 1739.32 3277.44 1760.59 3305.51 1740.21 3307.06 1741.78 3308.84 1743.58 3312.98 1800.18 3311.8 1802.78 3284.82 1818.56 3235.99 1824.59 3220.91 1779.94 3217.83 1770.78 3213.44 1738.53 3213.44 1729.13L3213.44 1568.2C3209.18 1567.19 3189.08 1569.58 3188.12 1568.2 3187.36 1567.12 3188.29 1543.19 3188.12 1537.4 3187.98 1533 3190.01 1523.96 3185.62 1524.8L3172.92 1582.67C3150.16 1570.91 3130.37 1561.51 3117.58 1599.37 3114.62 1608.04 3109.69 1633.9 3109.69 1642.28L3109.69 1806.82 3054.01 1806.82 3054.01 1506.68 3104.61 1506.68C3105.89 1506.68 3103.65 1538.61 3104.61 1542.82 3124.17 1513.84 3131.59 1493.9 3163.42 1500.4 3174.02 1502.57 3179.97 1511.13 3186.89 1513.97 3188.24 1514.51 3187.69 1507.45 3189.75 1506.73 3194.4 1504.98 3212.18 1508.53 3213.4 1506.73 3215.38 1503.9 3210.57 1458.16 3214.63 1448.81 3217.24 1442.78 3260.89 1409.93 3269.07 1405.48Z" fill="#1A1A1A" fill-rule="evenodd"/><path
        d="M2507.55 1394.47 2507.55 1607.7C2511.81 1609.03 2512.65 1605.77 2515.1 1602.23 2535.24 1572.58 2552.14 1536.75 2571.99 1506.5L2638.94 1506.5 2570.8 1616.62 2644.01 1806.48 2587.15 1806.48 2535.32 1672.76C2531.48 1677.33 2507.59 1707.93 2507.59 1710.7L2507.59 1806.48 2452.01 1806.48 2452.01 1394.47 2507.59 1394.47Z"
        fill="#1A1A1A" fill-rule="evenodd"/><path
        d="M1785.01 1394.47 1785.01 1463.15 1646.1 1463.15 1646.1 1564.34 1764.83 1564.34 1764.83 1633 1646.1 1633 1646.1 1806.48 1588.01 1806.48 1588.01 1394.47 1785.01 1394.47Z"
        fill="#1A1A1A" fill-rule="evenodd"/><path
        d="M2167.01 1806.63 2111.71 1806.63C2110.54 1806.63 2109.78 1778.91 2106.65 1774.02 2078.72 1808.19 2048.84 1825.58 2012.37 1806.75 1962.44 1780.95 1959.04 1677.71 2007.76 1644.02 2022.76 1633.63 2097.2 1614.61 2100.52 1607.48 2103.83 1600.35 2100.64 1579.63 2096.75 1572.75 2090.04 1560.98 2067.99 1558.64 2057.93 1560.56 2034.33 1565.03 2032.78 1593.59 2027.12 1596.13 2024.9 1597.15 1982.6 1588.04 1981.25 1585.26 1988.22 1506.51 2044.02 1492.7 2090.33 1498.72 2204.06 1513.47 2131.54 1706.21 2167.01 1806.63ZM2101.66 1661.7C2083.54 1672.33 2032.35 1672.63 2028.88 1707.24 2023.47 1761.22 2078.8 1764.72 2096.62 1725.1 2105.01 1706.45 2100.64 1682.65 2101.61 1661.7Z"
        fill="#1A1A1A" fill-rule="evenodd"/><path
        d="M3524.03 1680.18 3387.56 1680.18C3382.58 1749.96 3448.32 1784.77 3467.54 1712.25 3477.57 1718.43 3511.1 1716.51 3517.54 1722.99 3528.89 1734.37 3493.76 1785.02 3485.46 1792.52 3418.72 1852.34 3337 1794.49 3329.8 1681.56 3313.95 1433.45 3541.2 1444.6 3524.08 1680.23ZM3468.47 1633.42C3472.35 1537.04 3383.93 1537.81 3387.6 1633.42L3468.47 1633.42Z"
        fill="#1A1A1A" fill-rule="evenodd"/><path
        d="M2400 1806.48 2344.28 1806.48 2344.28 1613.38C2344.28 1612.17 2341.15 1592.26 2340.55 1589.78 2329.74 1544.61 2281.87 1557.43 2270.25 1598.15 2269.45 1600.92 2265.73 1619.38 2265.73 1620.59L2265.73 1806.48 2210 1806.48 2210 1506.89 2260.67 1506.89 2261.93 1546.59C2293.2 1483.56 2379.13 1479.35 2396.2 1561.03 2396.88 1564.22 2400 1583.24 2400 1584.5L2400 1806.48Z"
        fill="#1A1A1A" fill-rule="evenodd"/><path
        d="M2866.09 1506.48 2866.09 1703.87C2866.09 1705.08 2869.78 1723.67 2870.57 1726.38 2883.33 1771.06 2931.55 1754.45 2940.17 1713.04 2940.79 1710.09 2943.84 1687.27 2943.84 1685.76L2943.84 1506.48 2999.01 1506.48 2999.01 1807.09 2948.86 1807.09C2948.44 1796.96 2949.44 1786.39 2948.86 1776.25 2948.53 1770.88 2950.82 1765.86 2945.13 1767.26 2917.07 1827.62 2838.07 1835.23 2817.28 1760.01 2815.9 1754.94 2811.01 1732.61 2811.01 1729.28L2811.01 1506.53 2866.17 1506.53Z"
        fill="#1A1A1A" fill-rule="evenodd"/><path
        d="M2740.16 1507.41 2783.23 1507.41 2783.23 1568.66 2740.16 1568.66 2740.16 1806.48 2684.4 1806.48 2684.4 1568.66 2654 1568.66 2654 1507.41 2684.45 1507.41C2673.33 1398.06 2730.64 1367.79 2794.86 1399.2 2795.83 1401.18 2791.48 1442.73 2790.38 1447.29 2786.99 1461.72 2758.67 1438.65 2746.32 1456.72 2738.93 1467.54 2740.19 1493.29 2740.16 1507.35Z"
        fill="#1A1A1A" fill-rule="evenodd"/><path
        d="M1880.3 1506.49C1881.27 1507.87 1879.55 1536.61 1880.3 1542.63 1892.97 1528 1899.27 1504.91 1917.3 1500.1 1926.28 1497.75 1960.59 1501.79 1962.94 1515.89 1964.19 1523.47 1948.34 1569.8 1948.14 1582.4 1925.85 1569.57 1905.68 1561.85 1893.18 1599.1 1890.25 1607.76 1885.33 1633.62 1885.33 1641.99L1885.33 1806.47 1830.01 1806.47 1830.01 1506.42C1837.06 1508.35 1878.54 1503.89 1880.3 1506.42Z"
        fill="#1A1A1A" fill-rule="evenodd"/><path
        d="M3616.68 1506.49C3617.65 1507.87 3615.91 1536.61 3616.68 1542.63 3629.44 1528 3635.78 1504.91 3653.95 1500.1 3663 1497.75 3697.57 1501.79 3699.93 1515.89 3701.19 1523.47 3685.23 1569.8 3685.02 1582.4 3662.57 1569.57 3642.25 1561.85 3629.65 1599.1 3626.69 1607.76 3621.74 1633.62 3621.74 1641.99L3621.74 1806.47 3566 1806.47 3566 1506.42C3573.11 1508.35 3614.89 1503.89 3616.68 1506.42Z"
        fill="#1A1A1A" fill-rule="evenodd"/><path
        d="M1340.8 1471.25C1340.53 1471.52 1337.53 1471.83 1335.79 1473.63 1203.91 1609.26 1067.49 1746.57 931.656 1878.13 929.859 1879.88 929.585 1882.86 929.279 1883.14 895.861 1915.33 861.679 1941.1 811.714 1930.23 749.149 1916.58 715.321 1849.01 738.854 1789.71 747.49 1767.9 765.648 1751.8 781.592 1735.35 914.576 1598.11 1053.9 1460.34 1190.76 1326.81 1192.57 1325.06 1192.84 1322.07 1193.15 1321.79 1207.24 1308.09 1229.13 1288.27 1247.45 1280.66 1301.13 1258.41 1364.05 1284.76 1383.54 1339.65 1403.22 1395.12 1377.54 1433.35 1340.82 1471.27ZM1283.97 1386.9C1274.25 1388.31 1272.43 1394.49 1265.97 1398.86 1225.75 1426.18 1183.51 1408.08 1149.26 1456.44 1121.92 1495.08 1136.01 1552.24 1086.38 1571.2 1055.5 1582.99 1028.8 1579.73 1000.56 1603.26 969.222 1629.39 970.583 1660.03 959.144 1694.69 942.926 1743.88 911.12 1732.89 871.919 1746.92 853.896 1753.37 807.589 1779.06 829.623 1802.64 847.202 1821.44 864.031 1794.98 878.291 1788.17 897.554 1778.98 921.03 1779.5 941.267 1771.48 1023.01 1739.09 981.572 1648.74 1046.15 1624.02 1081.91 1610.34 1111.76 1614.25 1140.8 1582.55 1176.84 1543.22 1156.74 1476.37 1213.35 1459.2 1242.39 1450.4 1282.01 1448.13 1302.57 1420.62 1314.28 1404.95 1303.98 1384.02 1283.92 1386.9Z"
        fill="#A2A2A2" fill-rule="evenodd"/><path
        d="M1192.35 1321.46C1192.04 1321.73 1191.77 1324.72 1189.96 1326.46 1053.16 1459.89 913.882 1597.6 780.94 1734.76 747.593 1706.68 716.798 1671.21 736.558 1624.77 743.166 1609.22 752.72 1601.67 763.562 1590.38 863.737 1486.25 968.976 1385.97 1071.36 1284.22 1090.29 1271.8 1116.83 1269.56 1137.94 1277.08 1160.41 1285.08 1174.53 1306.88 1192.32 1321.43Z"
        fill="#1A1A1A" fill-rule="evenodd"/><path
        d="M1340.52 1470.76C1383.25 1504.21 1411.3 1552.84 1370.42 1601.33 1262.97 1707.46 1158.39 1816.81 1049.27 1921.08 1001.98 1949.87 959.299 1920.91 929.346 1883.11 929.619 1882.84 929.925 1879.82 931.727 1878.1 1067.48 1746.39 1203.75 1608.95 1335.52 1473.17 1337.26 1471.37 1340.25 1471.09 1340.52 1470.79Z"
        fill="#1A1A1A" fill-rule="evenodd"/><path
        d="M1283.78 1387.03C1303.85 1384.13 1314.11 1405.05 1302.42 1420.7 1281.87 1448.17 1242.32 1450.44 1213.33 1459.22 1156.77 1476.39 1176.84 1543.11 1140.88 1582.38 1111.88 1614.03 1082.08 1610.13 1046.37 1623.79 981.86 1648.47 1023.26 1738.71 941.643 1771.02 921.438 1779.03 897.964 1778.51 878.757 1787.69 864.492 1794.48 847.716 1820.91 830.159 1802.14 808.159 1778.59 854.406 1752.94 872.397 1746.5 911.536 1732.52 943.269 1743.49 959.498 1694.35 970.912 1659.75 969.56 1629.15 1000.85 1603.06 1029.04 1579.57 1055.69 1582.85 1086.53 1571.05 1136.07 1552.12 1122.03 1495.02 1149.34 1456.46 1183.53 1408.17 1225.71 1426.22 1265.87 1398.97 1272.31 1394.6 1274.14 1388.44 1283.84 1387.03Z"
        fill="#1A1A1A" fill-rule="evenodd"/></g></svg>